<svg width="74" height="74" viewBox="0 0 74 74" fill="none" xmlns="http://www.w3.org/2000/svg">
<path d="M65.7201 44.5069C70.0083 28.5029 60.5109 12.0528 44.5069 7.76457C28.5029 3.47632 12.0528 12.9738 7.76454 28.9778C3.47629 44.9818 12.9738 61.4319 28.9777 65.7201C44.9817 70.0084 61.4318 60.5109 65.7201 44.5069Z" fill="white" fill-opacity="0.1"/>
<mask id="mask0_1_936" style="mask-type:luminance" maskUnits="userSpaceOnUse" x="13" y="18" width="47" height="38">
<path d="M59.6841 28.3957L21.0471 18.043L13.8001 45.0889L52.4372 55.4417L59.6841 28.3957Z" fill="white"/>
</mask>
<g mask="url(#mask0_1_936)">
<path d="M47.7141 51.1631C46.1421 51.8948 44.3571 52.0358 42.6891 51.5587L24.1851 46.6006C22.5021 46.1797 21.0271 45.1653 20.0321 43.7457C19.1671 42.5908 18.6331 41.2234 18.4871 39.7893C18.3401 38.3547 18.5861 36.9084 19.1991 35.6046L22.1251 29.4209C23.6581 32.036 25.6991 34.3201 28.1261 36.1391C30.5531 37.9581 33.3191 39.2772 36.2621 40.0183C41.8751 41.5602 47.8611 40.963 53.0531 38.3415L52.5061 44.5291C52.3841 45.9646 51.8751 47.3404 51.0301 48.5092C50.1871 49.6784 49.0401 50.5952 47.7141 51.1631Z" fill="#FCA6A6"/>
<path d="M53.0521 38.3411C47.8591 40.9625 41.8731 41.5598 36.2611 40.0179C33.3181 39.2768 30.5521 37.9577 28.1251 36.1387C25.6981 34.3196 23.6571 32.0356 22.1241 29.4205L24.3581 24.6349C25.0071 23.2015 26.1511 22.0479 27.5801 21.3857C29.0101 20.722 30.6311 20.5927 32.1491 21.0215C32.8431 21.1789 33.4951 21.4789 34.0651 21.904C34.6331 22.3302 35.1071 22.8705 35.4531 23.4906C36.1401 24.7404 36.3171 26.2067 35.9441 27.581L42.0131 29.2073C42.1911 28.509 42.5161 27.8567 42.9681 27.2952C43.4201 26.7338 43.9871 26.2745 44.6311 25.9498C45.2121 25.5814 45.8661 25.3448 46.5471 25.2534C47.2281 25.1634 47.9221 25.2211 48.5801 25.4243C50.1581 25.7918 51.5451 26.7272 52.4771 28.0521C53.3881 29.3254 53.7631 30.9034 53.5201 32.4489L53.0521 38.3411Z" fill="#E47C7C"/>
<path d="M35.3951 36.1441C35.2371 36.1161 35.0921 36.0375 34.9811 35.9224C34.8691 35.8084 34.7981 35.661 34.7731 35.5025L34.6561 33.5708C34.6351 33.4621 34.6361 33.35 34.6621 33.2429C34.6881 33.1342 34.7371 33.0334 34.8041 32.947C34.8741 32.8595 34.9591 32.789 35.0591 32.738C35.1581 32.6885 35.2671 32.6592 35.3781 32.6556C35.7131 32.5871 36.0781 33.0016 36.1471 33.3368L36.2241 35.4162C36.2521 35.5139 36.2551 35.6175 36.2311 35.7173C36.2071 35.8171 36.1611 35.909 36.0931 35.9843C36.0251 36.0611 35.9391 36.119 35.8431 36.1533C35.7471 36.1895 35.6431 36.1996 35.5431 36.1837L35.3951 36.1441Z" fill="#23272A"/>
<path d="M38.208 36.8971L38.06 36.8575C37.965 36.8209 37.88 36.7601 37.816 36.681C37.749 36.6031 37.7041 36.5103 37.6841 36.4097C37.6631 36.3107 37.668 36.2076 37.698 36.1094C37.727 36.0112 37.7811 35.9227 37.8541 35.852L38.961 34.0899C39.188 33.834 39.711 33.6575 39.967 33.8846C40.061 33.943 40.141 34.023 40.202 34.1154C40.263 34.2092 40.302 34.313 40.318 34.4235C40.333 34.5322 40.3261 34.6441 40.2941 34.7512C40.2621 34.8567 40.2081 34.9545 40.1341 35.0378L39.0671 36.6522C38.9691 36.7778 38.8311 36.8693 38.6771 36.9119C38.5241 36.9564 38.359 36.9517 38.208 36.8971Z" fill="#23272A"/>
<path d="M31.3731 27.4648C31.1761 27.4121 31.0091 27.2834 30.9071 27.1087C30.8061 26.9329 30.7781 26.7243 30.8311 26.5277C31.1081 25.4935 30.8221 24.7835 30.3781 24.6645C29.9341 24.5455 29.1831 24.9778 28.9061 26.0121C28.8541 26.2086 28.7251 26.3752 28.5501 26.4772C28.3741 26.5774 28.1651 26.6053 27.9681 26.5525C27.7711 26.4998 27.6041 26.3711 27.5021 26.1964C27.4011 26.0206 27.3731 25.812 27.4261 25.6155C27.9011 23.8424 29.2941 22.7904 30.7741 23.187C32.2541 23.5836 32.7861 25.1514 32.3111 26.9244C32.2581 27.1209 32.1301 27.2875 31.9551 27.3895C31.7791 27.4896 31.5701 27.5176 31.3731 27.4648Z" fill="#23272A"/>
<path d="M49.433 32.3047C49.236 32.2519 49.069 32.1232 48.967 31.9485C48.866 31.7728 48.838 31.5641 48.891 31.3676C49.168 30.3333 48.882 29.6233 48.29 29.4647C47.698 29.306 47.243 29.8177 46.966 30.8519C46.914 31.0485 46.785 31.2151 46.61 31.3171C46.434 31.4172 46.225 31.4451 46.028 31.3924C45.831 31.3396 45.664 31.2109 45.562 31.0363C45.462 30.8605 45.433 30.6518 45.486 30.4553C45.961 28.6823 47.354 27.6302 48.686 27.9872C50.018 28.3442 50.846 29.9912 50.371 31.7642C50.318 31.9607 50.19 32.1274 50.015 32.2294C49.839 32.3295 49.63 32.3574 49.433 32.3047Z" fill="#23272A"/>
<path d="M36.062 40.7563C29.91 39.149 24.6431 35.1754 21.4121 29.7047C21.3131 29.5308 21.2871 29.3244 21.3391 29.1309C21.3911 28.9373 21.516 28.7714 21.689 28.6705C21.891 28.5693 22.123 28.5444 22.342 28.6031C22.561 28.6618 22.7491 28.7994 22.8731 28.9878C24.3351 31.5219 26.291 33.7373 28.624 35.5057C30.957 37.2727 33.621 38.5552 36.458 39.2788C41.861 40.8375 47.6581 40.2322 52.6171 37.5911C52.8191 37.4899 53.0511 37.465 53.2701 37.5237C53.4891 37.5824 53.6781 37.72 53.8021 37.9084C53.8461 38.0977 53.8281 38.297 53.7511 38.4745C53.6751 38.6536 53.5441 38.8038 53.3761 38.903C48.0681 41.7485 41.856 42.4134 36.062 40.7563Z" fill="#23272A"/>
<path d="M51.4311 42.0244C53.8031 42.6598 56.1141 41.7193 56.5951 39.9241C57.0761 38.1289 55.5451 36.1588 53.1731 35.5233C50.8021 34.8879 48.4901 35.8284 48.0091 37.6236C47.5281 39.4187 49.0601 41.3889 51.4311 42.0244Z" fill="#E9459D"/>
<path d="M21.3801 33.9726C23.7511 34.608 26.0631 33.6675 26.5441 31.8723C27.0251 30.0772 25.4931 28.107 23.1221 27.4716C20.7511 26.8361 18.4391 27.7766 17.9581 29.5718C17.4771 31.367 19.0091 33.3372 21.3801 33.9726Z" fill="#E9459D"/>
</g>
</svg>
