<svg width="74" height="74" viewBox="0 0 74 74" fill="none" xmlns="http://www.w3.org/2000/svg">
<path d="M65.7201 28.9778C61.4319 12.9738 44.9818 3.47632 28.9778 7.76457C12.9738 12.0528 3.47632 28.5029 7.76457 44.5069C12.0528 60.5109 28.5029 70.0084 44.5069 65.7201C60.5109 61.4319 70.0084 44.9818 65.7201 28.9778Z" fill="white" fill-opacity="0.1"/>
<mask id="mask0_1_877" style="mask-type:luminance" maskUnits="userSpaceOnUse" x="13" y="15" width="48" height="44">
<path d="M51.661 15.1453L13.0239 25.4981L21.8112 58.2926L60.4482 47.9399L51.661 15.1453Z" fill="white"/>
</mask>
<g mask="url(#mask0_1_877)">
<path d="M54.8463 27.0341C55.5373 29.6131 47.5527 34.0801 36.8107 36.9581C26.0687 39.8361 16.9204 39.9601 16.2295 37.3811C16.1517 37.2221 16.112 37.0461 16.1152 36.8681C16.1185 36.6901 16.1638 36.5161 16.2469 36.3591L16.8809 35.4611C19.0913 32.8331 25.9707 29.6801 34.2651 27.4581C42.5596 25.2351 50.0935 24.5261 53.3222 25.6971L54.1839 26.1931L54.3198 26.1571C54.5696 26.3981 54.7511 26.7001 54.8463 27.0341Z" fill="#7B384D"/>
<path d="M53.3218 25.6971C50.0932 24.5261 42.5593 25.2351 34.2648 27.4581C25.9703 29.6801 19.091 32.8331 16.8806 35.4611L27.1087 24.1391C28.3208 22.2601 30.19 20.8981 32.352 20.3191C34.514 19.7401 36.8138 19.9851 38.8026 21.0051L53.3218 25.6971Z" fill="#F9B083"/>
<path d="M41.3978 23.0731C41.869 22.6561 42.0682 22.3121 41.9955 22.0411L39.9005 21.2931C39.2361 21.2931 38.5779 21.4201 37.9605 21.6671C37.3897 22.2561 38.8333 24.9241 41.3978 23.0731Z" fill="#EC1E79"/>
<path d="M24.5278 27.0121C24.6638 26.9761 24.7001 27.1111 24.8725 27.2111C28.4458 28.5811 31.4878 22.5291 30.4174 21.7971L29.1936 22.1251C28.3858 22.7111 27.6917 23.4381 27.1461 24.2741L24.5278 27.0121Z" fill="#EC1E79"/>
<path d="M42.5101 32.6671L47.0557 49.6321C47.1222 49.8741 47.1366 50.1291 47.0987 50.3801C47.0618 50.6281 46.9728 50.8671 46.8391 51.0811C46.7043 51.2961 46.5274 51.4781 46.3177 51.6201C46.1093 51.7621 45.8733 51.8601 45.6248 51.9061L36.6505 54.3111C36.4122 54.3951 36.1587 54.4281 35.9074 54.4101C35.6548 54.3921 35.4103 54.3221 35.186 54.2031C34.9635 54.0851 34.7669 53.9221 34.6108 53.7261C34.4529 53.5281 34.3378 53.3001 34.2741 53.0571L29.7284 36.0921C29.6463 35.7911 29.6783 35.4701 29.8178 35.1911C29.9583 34.9101 30.1975 34.6931 30.4889 34.5791C33.8584 33.0941 37.4346 32.1361 41.095 31.7371C41.4046 31.6911 41.7201 31.7591 41.9821 31.9311C42.2424 32.1031 42.4307 32.3651 42.5101 32.6671Z" fill="#F9B083"/>
<path d="M52.0714 38.9781C52.1837 39.3261 52.2099 39.6961 52.1458 40.0551C52.0834 40.4151 51.9339 40.7551 51.7099 41.0451C51.4856 41.3331 51.1947 41.5641 50.8608 41.7161C50.5284 41.8671 50.1635 41.9361 49.7978 41.9151C48.2657 42.1801 47.0499 40.9061 44.4932 41.1541C41.9366 41.4031 40.0788 42.6281 39.3546 44.2771C38.6305 45.9251 38.7475 44.7301 38.5388 44.4951C38.3301 44.2601 34.2224 43.6151 32.3915 44.3971C30.5605 45.1781 29.6372 47.1711 28.1778 47.7081C27.8651 47.8791 27.5185 47.9781 27.1637 47.9971C26.8076 48.0171 26.4519 47.9561 26.1229 47.8221C25.794 47.6881 25.4983 47.4821 25.2601 47.2181C25.0206 46.9551 24.8434 46.6421 24.7405 46.3011C24.4589 46.6591 24.2805 47.0871 24.222 47.5371C24.1621 47.9881 24.2266 48.4471 24.4069 48.8641C24.5546 49.1701 24.7656 49.4411 25.0266 49.6591C25.2876 49.8771 25.5914 50.0371 25.9203 50.1281C26.2479 50.2191 26.5913 50.2391 26.9275 50.1881C27.2647 50.1361 27.5856 50.0121 27.8711 49.8261C27.8711 49.8261 28.3264 52.6141 31.4175 51.6401C34.5086 50.6661 33.3559 49.0841 33.3559 49.0841C33.3559 49.0841 35.8319 50.1661 37.119 49.5301C37.6173 49.3131 38.0669 48.9941 38.4362 48.5941C38.8056 48.1941 39.0874 47.7231 39.2661 47.2101C39.3293 46.9021 39.7373 46.7921 40.0819 46.9911C40.4934 47.3461 40.973 47.6131 41.4929 47.7751C42.0129 47.9371 42.5613 47.9881 43.1018 47.9271C44.3984 47.8711 45.3312 46.4571 46.0016 45.6961C46.672 44.9341 47.5622 47.1691 48.9583 46.9401C50.3544 46.7111 51.1228 43.5961 51.1228 43.5961C51.4713 43.6131 51.8207 43.5581 52.1458 43.4331C52.4725 43.3091 52.7699 43.1191 53.0192 42.8741C53.2686 42.6301 53.4638 42.3361 53.5944 42.0131C53.7247 41.6891 53.7876 41.3421 53.7775 40.9941C53.7224 40.5271 53.5318 40.0881 53.2286 39.7291C52.9256 39.3701 52.5232 39.1091 52.0714 38.9781Z" fill="#7B384D"/>
<path d="M41.3187 39.0951C41.1378 39.1441 40.9458 39.1181 40.7842 39.0261C40.6236 38.9321 40.5053 38.7791 40.457 38.5991C40.3115 38.0561 39.9668 37.8571 39.8308 37.8941C39.6949 37.9301 39.4956 38.2751 39.6411 38.8171C39.6895 38.9981 39.6636 39.1901 39.5713 39.3511C39.4773 39.5121 39.3239 39.6301 39.143 39.6781C38.9622 39.7271 38.7702 39.7011 38.6086 39.6091C38.448 39.5151 38.3297 39.3621 38.2813 39.1821C38.1559 38.7141 38.2222 38.2161 38.4652 37.7961C38.7083 37.3761 39.1072 37.0701 39.5763 36.9441C40.0454 36.8181 40.5439 36.8841 40.9644 37.1261C41.385 37.3681 41.6912 37.7661 41.8167 38.2351C41.8353 38.4131 41.7973 38.5921 41.7073 38.7451C41.619 38.9001 41.4827 39.0221 41.3187 39.0951Z" fill="#23272A"/>
<path d="M36.1502 40.4801C35.9693 40.5281 35.7774 40.5031 35.6157 40.4111C35.4551 40.3171 35.3369 40.1641 35.2885 39.9841C35.143 39.4411 34.7983 39.2421 34.6624 39.2791C34.5264 39.3151 34.3272 39.6591 34.4726 40.2021C34.521 40.3831 34.4951 40.5741 34.4029 40.7361C34.3089 40.8961 34.1554 41.0151 33.9746 41.0631C33.796 41.0821 33.6168 41.0441 33.4631 40.9541C33.3083 40.8661 33.1859 40.7301 33.1129 40.5671C32.9874 40.0981 33.0537 39.6011 33.2968 39.1811C33.5398 38.7601 33.9387 38.4541 34.4078 38.3291C34.8769 38.2031 35.3755 38.2691 35.796 38.5111C36.2165 38.7531 36.5228 39.1511 36.6482 39.6191C36.6669 39.7981 36.6288 39.9761 36.5388 40.1301C36.4505 40.2851 36.3143 40.4071 36.1502 40.4801Z" fill="#23272A"/>
</g>
</svg>
