<svg width="74" height="74" viewBox="0 0 74 74" fill="none" xmlns="http://www.w3.org/2000/svg">
<path d="M65.7201 28.9778C61.4319 12.9738 44.9818 3.47632 28.9778 7.76457C12.9738 12.0528 3.47632 28.5029 7.76457 44.5069C12.0528 60.5109 28.5029 70.0084 44.5069 65.7201C60.5109 61.4319 70.0084 44.9818 65.7201 28.9778Z" fill="white" fill-opacity="0.1"/>
<mask id="mask0_1_892" style="mask-type:luminance" maskUnits="userSpaceOnUse" x="14" y="12" width="46" height="49">
<path d="M48.9525 12.7653L14.1792 22.0828L24.3419 60.0107L59.1153 50.6932L48.9525 12.7653Z" fill="white"/>
</mask>
<g mask="url(#mask0_1_892)">
<path d="M51.6667 39.8601C52.4642 39.0642 53.0356 38.0706 53.323 36.9821C53.6104 35.8936 53.6033 34.7491 53.3025 33.6652C52.8774 32.0785 51.8377 30.7255 50.4122 29.9035C48.9871 29.083 47.293 28.861 45.7028 29.2871L44.0116 29.7402C43.2982 21.5432 41.4998 15.4462 39.5315 15.4802C37.5631 15.5142 35.6306 22.4465 35.2784 31.5869L35.1246 31.6281C30.5569 23.806 25.8373 18.4916 23.9619 19.4876C22.0865 20.4835 23.4238 26.7041 26.7919 34.3542L25.2544 34.7662C23.6867 35.2274 22.3564 36.273 21.5387 37.6862C20.7212 39.0993 20.4791 40.7727 20.8619 42.3576C21.1434 43.4467 21.7095 44.4414 22.5026 45.2404C23.2958 46.0394 24.2874 46.6141 25.376 46.9047C24.1225 47.7208 23.1963 48.9509 22.7594 50.3788C22.3225 51.8067 22.4039 53.3441 22.9882 54.7172C23.5727 56.0918 24.623 57.215 25.9554 57.8925C27.2878 58.57 28.8169 58.7573 30.2745 58.421L53.1827 52.2828C54.6132 51.8452 55.8438 50.9185 56.6589 49.6655C57.474 48.4126 57.822 46.9147 57.6409 45.432C57.4604 43.9508 56.7621 42.5787 55.6698 41.5605C54.5775 40.5423 53.1604 39.9401 51.6667 39.8601Z" fill="#E9459D"/>
<path d="M34.6355 37.1866C33.8896 36.8947 33.0607 36.8947 32.3137 37.1853C31.5672 37.4775 30.9578 38.0388 30.6077 38.7592L30.454 38.8004L30.2287 39.1898L29.6441 38.8531C28.9807 38.4042 28.1723 38.2227 27.3796 38.343C26.5875 38.4648 25.8695 38.8792 25.3696 39.5049C25.2037 39.8717 25.1129 40.2677 25.1021 40.6687C25.0917 41.0711 25.1618 41.4718 25.3079 41.8454C25.4546 42.2206 25.6743 42.5614 25.9547 42.8497C26.2352 43.1381 26.5703 43.3675 26.941 43.5247L27.0948 43.4834L27.4845 43.7079L30.2126 45.2796C30.7366 45.5438 31.3398 45.6059 31.9072 45.4539C32.4745 45.3019 32.9659 44.9465 33.2876 44.4557L34.7106 41.7717L35.0485 41.1877C35.4524 40.5746 35.6322 39.8423 35.5568 39.1125C35.4818 38.3843 35.1561 37.7033 34.6355 37.1866Z" fill="#F4DC53"/>
<path d="M48.1658 33.5617C47.42 33.2697 46.591 33.2698 45.8441 33.5604C45.0975 33.8526 44.4881 34.4139 44.138 35.1343L43.9842 35.1755L43.759 35.5648L43.1744 35.2281C42.511 34.7792 41.7025 34.5978 40.91 34.718C40.1177 34.8399 39.3999 35.2542 38.8999 35.88C38.734 36.2468 38.6432 36.6429 38.6323 37.0438C38.622 37.4462 38.6921 37.8469 38.8382 38.2205C38.9849 38.5957 39.2046 38.9365 39.485 39.2248C39.7654 39.5132 40.1007 39.7424 40.4713 39.8997L40.6251 39.8585L41.0148 40.083L43.7429 41.6547C44.2669 41.9189 44.8701 41.9809 45.4374 41.8289C46.0048 41.6769 46.4962 41.3215 46.8178 40.8307L48.2409 38.1468L48.5788 37.5629C48.9827 36.9497 49.1625 36.2173 49.087 35.4875C49.012 34.7593 48.6866 34.0784 48.1658 33.5617Z" fill="#F4DC53"/>
<path d="M36.1708 48.4531C35.9964 48.4571 35.8267 48.5091 35.6802 48.6043C35.5334 48.6979 35.415 48.83 35.3379 48.9855C35.2612 49.1426 35.2282 49.3159 35.2434 49.4894C35.2584 49.663 35.3208 49.8289 35.4235 49.9691C36.0225 50.8201 36.8685 51.4668 37.848 51.8228C38.827 52.1772 39.8922 52.224 40.8994 51.9558C41.8942 51.7024 42.7812 51.1358 43.4288 50.3406C44.0765 49.5453 44.4501 48.562 44.4946 47.5385C44.5135 47.3657 44.4845 47.1909 44.4108 47.033C44.3371 46.8752 44.222 46.7415 44.077 46.6438C43.9323 46.5478 43.7638 46.4926 43.5898 46.4849C43.4154 46.4757 43.2424 46.5155 43.0894 46.5993C41.0549 47.9717 38.6191 48.6244 36.1708 48.4531Z" fill="#25272A"/>
</g>
</svg>
