<svg width="563" height="352" viewBox="0 0 563 352" fill="none" xmlns="http://www.w3.org/2000/svg">
<g clip-path="url(#clip0_1_255)">
<path d="M165.399 351.9H-107.901C-119.201 341.8 -126.101 330.1 -125.001 319.3C-122.701 296 -86.0006 292.6 -50.4006 309.4L-43.4006 312.9C-42.2207 308.614 -40.3276 304.557 -37.8006 300.9C-20.001 274.8 20.199 272.3 46.199 291.4C49.065 293.495 51.742 295.838 54.199 298.4C57.695 293.567 61.683 289.109 66.099 285.1C90.199 263.3 118.799 258.6 129.699 272C139.299 283.8 131.899 306.5 113.699 324.4C113.699 324.4 167.499 325.7 165.399 351.9Z" fill="#404EED"/>
<path d="M503.4 351.4C481.3 305.8 468.9 251.2 468.9 251.2L467.9 245.9L423.4 251.2V351.4H503.4Z" fill="#2835BD"/>
<path d="M493.8 351.4C474.4 311.4 463.6 263.5 463.6 263.5L461 250.1L423.7 263.5V351.4H493.8Z" fill="black"/>
<path d="M500.8 218H484.6V351.46H500.8V218Z" fill="#2835BD"/>
<path d="M500.8 235.3C498.374 236.405 495.683 236.794 493.044 236.422C490.404 236.05 487.926 234.932 485.9 233.2L484.6 232.1V226.1L500.8 223V235.3Z" fill="black"/>
<path d="M476 351.4C487.1 348.7 502.2 334 502.2 334C502.2 334 507.5 345.4 510.6 351.4H521.8C523.009 351.407 524.206 351.158 525.313 350.671C526.42 350.184 527.411 349.468 528.223 348.572C529.034 347.675 529.648 346.618 530.023 345.468C530.398 344.319 530.527 343.103 530.4 341.9C529.9 337 527.6 331.5 524.1 323.5C518.2 310.2 516.3 303.2 504.8 303.2H494.4L470.4 292.6C455 300.7 444.4 305.4 435.3 310.8C421.9 319 411.3 335.2 421.7 351.4H476Z" fill="#FFC619"/>
<path d="M307 263.5V351.4H428.8C448.2 311.4 459 263.5 459 263.5L461.9 251.2L307 263.5Z" fill="#2835BD"/>
<path d="M431.2 266.2L307 277.8V351.4H399.9C408.9 330.9 431.2 266.2 431.2 266.2Z" fill="black"/>
<path d="M414.7 344.7C424.945 328.858 433.08 311.747 438.9 293.8" stroke="black" stroke-width="2" stroke-linecap="round" stroke-linejoin="round"/>
<path d="M400.2 332.5C395.055 332.5 390.12 334.544 386.482 338.182C382.844 341.82 380.8 346.755 380.8 351.9H419.6C419.6 346.755 417.556 341.82 413.918 338.182C410.28 334.544 405.345 332.5 400.2 332.5Z" fill="#404EED"/>
<path d="M427.8 351.4C447.2 311.4 458.1 263.5 458.1 263.5L427.8 351.4Z" fill="#2835BD"/>
<path d="M465.3 351.3C465.2 351.1 458.3 333.7 454.7 322.5L454.5 321.8C452.1 314.2 450.1 308.1 450.4 302.7L448.7 303.6C448.7 309 450.6 315 453 322.3L453.2 323C456.5 333.2 462.4 348.5 463.6 351.4H465.3V351.3Z" fill="black"/>
<path d="M527.8 349C528.417 348.397 528.883 347.657 529.161 346.841C529.438 346.024 529.521 345.154 529.4 344.3C528.7 337.2 525 328.7 521.1 319.9L517.1 310.5L515.6 311.1C516.9 314.3 518.3 317.4 519.6 320.5C524.3 331.2 528.8 341.5 527.8 349Z" fill="white"/>
<path d="M494.4 322.9C492.5 330.7 489.8 340.4 486.3 351.4H465.3C465.3 351.4 458.5 333.9 454.8 322.6C451.1 311.3 448.4 303.2 452.1 295.7C455.8 288.2 461.6 287.6 470.4 292.6L469.1 306.8L475.8 325.8L478.9 315.7C485.5 311.4 493.8 313.8 494.4 322.9Z" fill="#FFC619"/>
<path d="M467.3 345.1L465.6 340.2C461.9 329.3 458.7 320 456.5 311.5C454.7 304.5 453.2 296.2 454.1 292.5C453.365 293.396 452.728 294.368 452.2 295.4C452.2 300.8 454 308.3 454.9 311.9C457.2 320.5 460.4 329.8 464.1 340.7L465.8 345.7C466.533 347.767 467.233 349.667 467.9 351.4H469.7C468.9 349.6 468.2 347.6 467.3 345.1Z" fill="white"/>
<path d="M482.5 351.4C484.8 343.7 488.1 332.4 492.4 317.8C492.43 317.695 492.438 317.585 492.423 317.477C492.409 317.368 492.373 317.264 492.316 317.17C492.26 317.077 492.185 316.995 492.096 316.932C492.008 316.868 491.907 316.823 491.8 316.8C491.703 316.752 491.596 316.727 491.488 316.727C491.379 316.727 491.272 316.752 491.175 316.801C491.078 316.849 490.994 316.92 490.929 317.006C490.864 317.093 490.82 317.194 490.8 317.3C486.4 332.2 483.1 343.7 480.8 351.4H482.5Z" fill="white"/>
<path d="M490.6 261.4C478 259.6 473.2 260.5 468.5 271.1C463.8 281.7 466.2 290.7 474 302.1C481.8 313.5 501 311.4 508.3 308.7C515.6 306 522 298.7 525.6 288.4C529.2 278.1 528.1 266.8 522.7 260.6C517.3 254.4 508.2 249.3 500 251.9C491.8 254.5 490.6 261.4 490.6 261.4Z" fill="#DE3A93"/>
<path d="M496.7 276.3L492.9 275.3" stroke="black" stroke-width="2" stroke-linecap="round" stroke-linejoin="round"/>
<path d="M496.9 277.9L493 278.4" stroke="black" stroke-width="2" stroke-linecap="round" stroke-linejoin="round"/>
<path d="M524.5 276L527.5 274" stroke="black" stroke-width="2" stroke-linecap="round" stroke-linejoin="round"/>
<path d="M524.3 277.7L527.4 277.2" stroke="black" stroke-width="2" stroke-linecap="round" stroke-linejoin="round"/>
<path d="M486.5 251.2C484.4 251.2 482.8 252.6 482.7 253.6C482.6 254.6 486.4 257.8 491.3 263.9L492.6 263.4C488 251.6 488.6 251.1 486.5 251.2Z" fill="black"/>
<path d="M496.2 260.5C492.4 262.9 488 266.2 488 266.2" stroke="black" stroke-width="2" stroke-linecap="round" stroke-linejoin="round"/>
<path d="M494.4 322.9C495.6 317.8 496.5 313.5 497 310.2C498.4 301.6 495.8 300.2 492 299.1C488.2 298 485.5 295.9 483.7 289.4C481.9 282.9 480.8 283 478.6 284.1C476.2 285.399 474.143 287.25 472.6 289.5C471.4 291.6 471.6 294 473.9 299.9C475.422 303.59 477.867 306.827 481 309.3L478.9 315.7C486.6 315.4 491.2 316.4 494.4 322.9Z" fill="#FF78B9"/>
<path d="M506.9 318.9C505.8 314 504.4 308.7 506.9 307.3C509.4 305.9 517.1 302.3 521.3 293.2C521.388 292.974 521.52 292.767 521.69 292.593C521.859 292.419 522.062 292.281 522.287 292.188C522.511 292.094 522.752 292.047 522.995 292.049C523.237 292.052 523.477 292.103 523.7 292.2H523.9C524.082 292.266 524.249 292.368 524.39 292.502C524.531 292.635 524.642 292.796 524.717 292.974C524.792 293.153 524.83 293.345 524.827 293.539C524.824 293.733 524.781 293.924 524.7 294.1C522.654 298.45 520.211 302.601 517.4 306.5C517.983 308.845 518.718 311.15 519.6 313.4C515 315.7 506.9 318.9 506.9 318.9Z" fill="#FF78B9"/>
<path d="M482.3 302.9C482.448 302.735 482.529 302.522 482.529 302.3C482.529 302.079 482.448 301.865 482.3 301.7C480.805 300.133 479.466 298.425 478.3 296.6C476.4 293.3 474.6 287.4 475.9 285.9L474.5 287.2C474.278 287.44 474.109 287.725 474.006 288.035C473.902 288.346 473.866 288.675 473.9 289C474.429 291.947 475.443 294.785 476.9 297.4C478.109 299.372 479.517 301.214 481.1 302.9L481.7 303.1L482.3 302.9Z" fill="black"/>
<path d="M481.8 309.5C484.685 309.144 487.594 309.011 490.5 309.1" stroke="black" stroke-width="2" stroke-linecap="round" stroke-linejoin="round"/>
<path d="M472.3 336.7L478.6 316.7" stroke="black" stroke-width="2" stroke-linecap="round" stroke-linejoin="round"/>
<path d="M475.8 325.8L469.7 308.3" stroke="black" stroke-width="2" stroke-linecap="round" stroke-linejoin="round"/>
<path d="M507 319.7C508.8 329.4 512.7 343 512.7 343" stroke="black" stroke-width="2" stroke-linecap="round" stroke-linejoin="round"/>
<path d="M425.9 326C422.426 326 419.094 327.38 416.637 329.837C414.18 332.294 412.8 335.626 412.8 339.1V351.9H438.9V339.1C438.9 335.643 437.534 332.326 435.099 329.872C432.663 327.418 429.357 326.027 425.9 326Z" fill="#404EED"/>
<path d="M438.9 339.1C437.211 339.087 435.535 339.408 433.971 340.046C432.406 340.683 430.984 341.624 429.784 342.814C428.585 344.004 427.633 345.419 426.984 346.979C426.334 348.538 426 350.211 426 351.9H451.7C451.7 348.505 450.351 345.25 447.951 342.849C445.551 340.449 442.295 339.1 438.9 339.1Z" fill="#404EED"/>
<path d="M479 227.5L498.7 224.4" stroke="black" stroke-width="8" stroke-linecap="round" stroke-linejoin="round"/>
<path d="M520.2 264.1L520.9 265.2" stroke="#FFA8D2" stroke-width="3" stroke-linecap="round" stroke-linejoin="round"/>
<path d="M510.3 256.8C512.889 257.576 515.278 258.907 517.3 260.7" stroke="#FFA8D2" stroke-width="3" stroke-linecap="round" stroke-linejoin="round"/>
<path d="M498.2 224.5C514.9 221.7 541.7 215.5 555.6 211.8" stroke="#2835BD" stroke-width="8" stroke-linecap="round" stroke-linejoin="round"/>
<path d="M550.6 214.5L555.9 239.1" stroke="black" stroke-width="2" stroke-linecap="round" stroke-linejoin="round"/>
<path d="M560.9 238.3V235.1H540.3V238.4C540.258 238.857 540.122 239.299 539.9 239.7C538.868 241.202 538.311 242.978 538.3 244.8V257.9C538.302 260.114 539.102 262.252 540.553 263.924C542.004 265.595 544.009 266.687 546.2 267C549.153 267.4 552.147 267.4 555.1 267C557.264 266.663 559.233 265.558 560.647 263.886C562.062 262.215 562.826 260.09 562.8 257.9V244.8C562.825 242.988 562.302 241.21 561.3 239.7C561.019 239.289 560.878 238.798 560.9 238.3Z" fill="#8CD9FF"/>
<path d="M559 239.7V235.6H542.1V239.7C542.105 240.506 541.898 241.299 541.5 242C540.702 243.18 540.284 244.576 540.3 246V257.2C540.302 259.06 540.968 260.857 542.178 262.269C543.388 263.681 545.063 264.614 546.9 264.9C549.291 265.2 551.709 265.2 554.1 264.9C555.964 264.656 557.675 263.738 558.909 262.32C560.143 260.901 560.816 259.08 560.8 257.2V246C560.791 244.593 560.412 243.214 559.7 242C559.275 241.305 559.034 240.514 559 239.7Z" fill="#5865F2"/>
<path d="M540.3 236.7C540.3 238.1 544.9 239.2 550.6 239.2C556.3 239.2 560.9 238.1 560.9 236.7L550.6 232.6L540.3 236.7Z" fill="#8CD9FF"/>
<path d="M539.7 235.9C539.612 236.05 539.555 236.217 539.532 236.39C539.51 236.563 539.522 236.738 539.569 236.906C539.615 237.074 539.695 237.231 539.804 237.367C539.912 237.504 540.047 237.617 540.2 237.7C541.9 238.7 545.9 239.4 550.6 239.4C555.3 239.4 559.3 238.7 561 237.7C561.29 237.514 561.502 237.228 561.594 236.896C561.686 236.564 561.653 236.209 561.5 235.9L550.6 214.5L539.7 235.9Z" stroke="black" stroke-width="2" stroke-linecap="round" stroke-linejoin="round"/>
<path d="M549.6 258L546.5 257.3C546.201 257.192 545.952 256.979 545.8 256.7C545.658 256.421 545.631 256.097 545.724 255.798C545.818 255.499 546.024 255.249 546.3 255.1C546.45 255.012 546.617 254.955 546.79 254.932C546.962 254.91 547.138 254.922 547.306 254.969C547.474 255.015 547.631 255.095 547.767 255.204C547.903 255.312 548.017 255.447 548.1 255.6L549.6 258Z" fill="white"/>
<path d="M549.6 258L549.4 254.9C549.394 254.753 549.418 254.607 549.469 254.47C549.521 254.332 549.599 254.207 549.7 254.1C549.785 253.97 549.9 253.861 550.034 253.783C550.169 253.704 550.32 253.659 550.475 253.649C550.63 253.639 550.786 253.666 550.929 253.727C551.072 253.788 551.199 253.881 551.3 254C551.561 254.215 551.728 254.523 551.765 254.86C551.802 255.196 551.707 255.533 551.5 255.8L549.6 258Z" fill="white"/>
<path d="M550.2 260.9C548.5 261.4 546.9 260.9 546.5 259.8C546.1 258.7 546.7 258.1 548.3 257.7C548.998 257.52 549.67 257.251 550.3 256.9C551.6 256.2 552.3 257 552.6 257.9C552.9 258.8 551.9 260.3 550.2 260.9Z" fill="#121B80"/>
<g filter="url(#filter0_ddd_1_255)">
<path d="M547.136 257.878L545.936 257.857C545.108 257.843 544.424 258.502 544.41 259.331L544.408 259.421C544.394 260.249 545.054 260.932 545.882 260.947L547.082 260.968C547.91 260.982 548.593 260.322 548.608 259.494L548.609 259.404C548.624 258.576 547.964 257.893 547.136 257.878Z" fill="#FFE75C"/>
</g>
<path d="M552.8 246.2L555.6 244.7C555.821 244.511 555.992 244.27 556.1 244C556.146 243.849 556.162 243.69 556.147 243.533C556.132 243.376 556.086 243.223 556.011 243.084C555.937 242.945 555.836 242.821 555.714 242.721C555.592 242.621 555.451 242.546 555.3 242.5C554.968 242.408 554.614 242.451 554.314 242.619C554.014 242.788 553.793 243.069 553.7 243.4L552.8 246.2Z" fill="white"/>
<path d="M552.8 246.2L552.3 243.1C552.193 242.8 552.023 242.527 551.8 242.3C551.524 242.153 551.206 242.103 550.898 242.157C550.59 242.211 550.309 242.367 550.1 242.6C549.908 242.907 549.843 243.276 549.917 243.631C549.992 243.985 550.201 244.297 550.5 244.5L552.8 246.2Z" fill="white"/>
<path d="M553.6 245.8C555 246.8 555.7 248.4 555 249.3C554.3 250.2 553.5 250.3 552.2 249.2C551.653 248.754 551.047 248.384 550.4 248.1C550.153 248.039 549.928 247.912 549.747 247.732C549.567 247.553 549.44 247.327 549.378 247.081C549.316 246.834 549.323 246.575 549.397 246.332C549.472 246.089 549.611 245.87 549.8 245.7C550.4 244.7 552.2 244.8 553.6 245.8Z" fill="#121B80"/>
<g filter="url(#filter1_ddd_1_255)">
<path d="M552.905 249.398L553.612 250.368C554.1 251.037 555.038 251.184 555.708 250.696L555.78 250.643C556.45 250.155 556.597 249.216 556.109 248.547L555.402 247.577C554.913 246.908 553.975 246.761 553.306 247.249L553.233 247.302C552.564 247.79 552.417 248.729 552.905 249.398Z" fill="#FFE75C"/>
</g>
<path d="M550.6 237.6C556.289 237.6 560.9 236.481 560.9 235.1C560.9 233.719 556.289 232.6 550.6 232.6C544.911 232.6 540.3 233.719 540.3 235.1C540.3 236.481 544.911 237.6 550.6 237.6Z" fill="#8CD9FF"/>
<path d="M561 235.1H540.3V236.52H561V235.1Z" fill="#8CD9FF"/>
<path d="M554.8 235.9C554.3 236 553.9 236.3 553.9 236.8C553.912 236.906 553.946 237.007 553.998 237.1C554.05 237.192 554.12 237.273 554.203 237.339C554.287 237.404 554.383 237.452 554.485 237.479C554.588 237.507 554.695 237.514 554.8 237.5L556.5 237.2C556.725 237.162 556.932 237.055 557.093 236.894C557.255 236.732 557.362 236.525 557.4 236.3C557.39 236.197 557.357 236.098 557.303 236.009C557.25 235.921 557.178 235.845 557.092 235.787C557.006 235.73 556.908 235.693 556.806 235.677C556.703 235.662 556.599 235.67 556.5 235.7L554.8 235.9Z" fill="white"/>
<path d="M550.6 214.5L545.3 239.1" stroke="black" stroke-width="2" stroke-linecap="round" stroke-linejoin="round"/>
<path d="M551.4 216.2L548.8 210.6" stroke="black" stroke-width="2" stroke-linecap="round" stroke-linejoin="round"/>
<path d="M550.8 216.5L551.1 210.1" stroke="black" stroke-width="2" stroke-linecap="round" stroke-linejoin="round"/>
<path d="M522.7 281.4C526 277.6 525.5 275.3 524.4 274.6C523.3 273.9 521.6 275.2 518.6 280C515.6 284.8 518.1 286.6 522.7 281.4Z" fill="white"/>
<path d="M507 281.4C504.8 276.8 501 273.5 497.5 274C494 274.5 495.4 279.7 500 283.2C504.6 286.7 509.4 286.4 507 281.4Z" fill="white"/>
<path d="M524.2 277.2C524.394 276.3 524.324 275.362 524 274.5C523.1 274.4 521.7 275.4 519.8 278.1C520 279.5 520.7 280.5 521.5 280.6C522.3 280.7 524 279.3 524.2 277.2Z" fill="black"/>
<path d="M507.1 281.7C507.1 281.6 507 281.5 507 281.4C505.933 279.083 504.32 277.058 502.3 275.5C501.723 276.643 501.48 277.925 501.6 279.2C501.8 281.9 503.2 284 504.8 283.9C505.367 283.824 505.895 283.57 506.309 283.175C506.722 282.78 506.999 282.263 507.1 281.7Z" fill="black"/>
<path d="M509 291.7C515.3 290.1 517.8 289.4 518.8 290.8C519.8 292.2 518.9 293.8 517.4 295.4C519 298.9 518.5 300.5 515.4 300.5C513.14 300.339 510.949 299.654 509 298.5" stroke="black" stroke-width="2" stroke-linecap="round" stroke-linejoin="round"/>
<path d="M515.7 293.7C515.308 294.738 514.769 295.715 514.1 296.6" stroke="black" stroke-width="2" stroke-linecap="round" stroke-linejoin="round"/>
<path d="M87.6 351.4H98L105.8 327.6H85.3L87.6 351.4Z" fill="black"/>
<path d="M218.7 351.4H163C127.2 351.4 106.6 341.1 91.2 329.4L87.6 351.4H78.5C78.5 245.8 92.1 145.6 92.1 145.6C94.1 134.3 115.6 129.2 142.3 138.5C169 147.8 176.1 159.7 175.1 170.5C174.1 181.3 165.6 254.1 162.4 288.2L168.1 294.4C170.066 296.443 171.524 298.919 172.358 301.628C173.192 304.338 173.378 307.205 172.9 310L172.3 313.3C194.3 327.5 228.3 320.4 218.7 351.4Z" fill="#29CC7A"/>
<path d="M103.2 165C102.3 177.6 102.1 182.8 102.1 184.8C102.093 185.116 102.152 185.43 102.273 185.723C102.393 186.015 102.573 186.28 102.8 186.5C108.7 192.4 115.7 194.3 121.2 195C121.518 195.042 121.841 195.017 122.149 194.927C122.457 194.836 122.742 194.683 122.987 194.476C123.232 194.268 123.431 194.012 123.571 193.724C123.711 193.435 123.789 193.121 123.8 192.8L124.9 176.8" stroke="white" stroke-width="2" stroke-miterlimit="10" stroke-linecap="round"/>
<path d="M98.8 282.3C95.487 282.37 92.214 281.578 89.3 280" stroke="black" stroke-width="4" stroke-miterlimit="10" stroke-linecap="round"/>
<path d="M90.5 286.9C94.8 287.5 100.1 285.6 100.1 285.6" stroke="black" stroke-width="4" stroke-miterlimit="10" stroke-linecap="round"/>
<path d="M149.8 215.1C148.9 224.1 148.7 234 153.2 236.6C156 238.3 161.7 238.1 168 235.1C170.5 210.2 173.2 188.8 174.5 176.7L144.7 181.6C141.8 207.3 141.3 215.7 149.8 215.1Z" fill="#15AD75"/>
<path d="M170.531 178.681C175.31 168.661 162.495 152.579 141.907 142.759C121.32 132.939 100.756 133.101 95.977 143.121C91.198 153.14 104.013 169.223 124.601 179.043C145.188 188.862 165.752 188.7 170.531 178.681Z" fill="black"/>
<path d="M91.2 329.4C106.6 341.1 127.2 351.4 163 351.4H218.7C219.648 348.523 220.187 345.527 220.3 342.5C161.2 342.5 126.9 341.3 79.3 305.7C78.9 319.9 78.6 335.2 78.5 351.4H87.6L91.2 329.4Z" fill="#57F287"/>
<path d="M95.2 279.1C97.8 289.2 104.9 296.9 111.1 296.3C117.3 295.7 117.5 289.9 115.1 280.2C114.5 277.6 114 275.1 113.5 272.5C111.7 263.3 107.2 259.3 101.7 259.8C96.2 260.3 92.5 269.1 95.2 279.1Z" fill="white"/>
<path d="M95.2 279.1C97.8 289.2 104.9 296.9 111.1 296.3C117.3 295.7 117.5 289.9 115.1 280.2C114.5 277.6 114 275.1 113.5 272.5C111.7 263.3 107.2 259.3 101.7 259.8C96.2 260.3 92.5 269.1 95.2 279.1Z" fill="white"/>
<path d="M111.5 279.2C112.5 283.6 111.8 287.5 110.1 287.8C108.4 288.1 106.3 285.8 105.6 280.3C104.9 274.8 105.3 271.8 107 271.8C108.7 271.8 110.6 274.7 111.5 279.2Z" fill="black"/>
<path d="M169.4 312.5C169.548 312.509 169.696 312.48 169.831 312.418C169.966 312.355 170.083 312.26 170.172 312.141C170.261 312.023 170.319 311.884 170.342 311.737C170.364 311.59 170.35 311.44 170.3 311.3C168.3 301.3 162.2 299.9 150.9 302.5C139.6 305.1 135.1 306.1 132.9 306.9C130.7 307.7 131.7 308.2 146.6 310.5C154.135 311.767 161.759 312.436 169.4 312.5Z" fill="#15AD75"/>
<path d="M219.8 337.4C208.7 337.5 190.2 337.3 172 336.1C138.2 333.8 107.1 321.2 79.5 298.7V300.5C107.1 322.8 138.1 335.3 171.9 337.5C188.9 338.7 206.1 338.9 217.4 338.9H220.1L219.8 337.4Z" fill="black"/>
<path d="M113.5 272.6C111.7 263.4 107.2 259.4 101.7 259.9C96.2 260.4 94.7 264.5 94.3 270.4C100.491 272.398 107.017 273.146 113.5 272.6Z" fill="#5865F2"/>
<path d="M255.4 192.3L222.1 210.9C222.67 211.427 223.387 211.767 224.156 211.875C224.925 211.982 225.708 211.851 226.4 211.5C228.3 210.7 232.9 206.5 234.7 205.5C236.5 204.5 241.6 202.5 244.1 201.5C247.183 200.279 250.078 198.629 252.7 196.6C254.9 194.8 255.7 194.1 255.4 192.3Z" fill="black"/>
<path d="M173.2 123.2C167.1 119.4 166.8 119.5 163.4 113.4C160 107.3 155.7 104.3 150.7 103.6L156.9 148.5C169.9 152.3 177.9 145.7 179.7 139.2C181.5 132.7 179.4 127 173.2 123.2Z" fill="#3442D9"/>
<path d="M167.1 129.1C165.4 121.8 160.9 113.3 155.6 106.9C153.701 104.588 152.354 101.873 151.661 98.9618C150.968 96.0509 150.947 93.0203 151.6 90.1001L153.8 80.1001C155.347 73.1595 154.522 65.9009 151.459 59.4839C148.395 53.0668 143.269 47.8617 136.9 44.7001C133.245 42.9006 129.267 41.8468 125.2 41.6001C117.547 41.0395 109.977 43.483 104.096 48.4118C98.215 53.3407 94.486 60.3671 93.7 68.0001C93.534 69.2931 93.467 70.5969 93.5 71.9001V76.2001L93.7 94.2001C93.917 102.287 92.203 110.308 88.7 117.6C87.246 120.493 86.139 123.548 85.4 126.7L134.3 178.7C157.6 174.8 172.2 152.3 167.1 129.1Z" fill="#3442D9"/>
<path d="M134.4 178.7C157.6 174.8 172.2 152.3 167.1 129.1C165.5 122.2 161.4 114.2 156.5 108" stroke="black" stroke-width="2" stroke-miterlimit="10" stroke-linecap="round"/>
<path d="M151.5 130.6C156.1 123 157.9 124 166.1 126.2C172.7 127.9 180.3 141.4 170.2 148.2C160.1 155 139.5 150.9 151.5 130.6Z" fill="#3442D9"/>
<path d="M128.703 108.187C129.625 107.482 129.773 106.129 129.035 105.163C128.297 104.198 126.952 103.987 126.031 104.691C125.11 105.396 124.961 106.749 125.699 107.714C126.437 108.68 127.782 108.891 128.703 108.187Z" fill="black"/>
<path d="M141.299 108.969C142.22 108.265 142.369 106.911 141.631 105.946C140.893 104.981 139.548 104.769 138.626 105.474C137.705 106.178 137.556 107.532 138.294 108.497C139.032 109.462 140.377 109.674 141.299 108.969Z" fill="black"/>
<path d="M140 107.4C150.7 116.2 146.3 122.5 154.9 135.5" stroke="white" stroke-width="3.00593" stroke-miterlimit="10" stroke-linecap="round"/>
<path d="M127.9 127.1C134.5 122.5 136.5 121.2 139 121.3L145.5 121.9L143.8 148.3L127.3 147.8L127.9 127.1Z" fill="#FFC619"/>
<path d="M159.9 120.4C160.025 120.051 160.066 119.677 160.022 119.309C159.978 118.941 159.849 118.588 159.646 118.278C159.442 117.968 159.17 117.709 158.85 117.522C158.529 117.335 158.17 117.225 157.8 117.2L146.8 115.6C146.002 115.515 145.198 115.707 144.525 116.144C143.851 116.581 143.348 117.236 143.1 118L136.9 141C136.776 141.35 136.734 141.723 136.778 142.091C136.822 142.459 136.951 142.812 137.154 143.122C137.358 143.432 137.63 143.691 137.951 143.878C138.271 144.065 138.63 144.175 139 144.2L150 145.8C150.799 145.885 151.602 145.693 152.276 145.256C152.949 144.819 153.452 144.164 153.7 143.4L159.9 120.4Z" fill="black"/>
<path d="M159.4 118.1L160.6 119.5L157.3 119.8L159.4 118.1Z" fill="black"/>
<path d="M164.8 133.3C163.4 131 162.1 128.1 158.3 127.5L157.8 132.3L164.8 133.3Z" fill="#FFC619"/>
<path d="M161 121.7C161.105 121.351 161.132 120.983 161.079 120.622C161.026 120.261 160.895 119.916 160.695 119.611C160.495 119.306 160.231 119.049 159.921 118.857C159.611 118.665 159.262 118.543 158.9 118.5L147.8 116.9C147.005 116.833 146.209 117.033 145.54 117.467C144.87 117.902 144.363 118.546 144.1 119.3L137.9 142.3C137.795 142.649 137.768 143.017 137.821 143.378C137.874 143.739 138.005 144.084 138.205 144.389C138.405 144.694 138.669 144.952 138.979 145.143C139.29 145.335 139.638 145.457 140 145.5L151.1 147C151.878 147.128 152.676 146.963 153.34 146.539C154.004 146.114 154.489 145.46 154.7 144.7L161 121.7Z" fill="white"/>
<path d="M157.6 130.8L162.1 131.5C163.012 131.601 163.847 132.056 164.427 132.766C165.007 133.477 165.284 134.387 165.2 135.3C165.177 135.775 165.055 136.24 164.842 136.665C164.628 137.089 164.328 137.465 163.961 137.766C163.593 138.068 163.167 138.289 162.708 138.415C162.25 138.542 161.77 138.571 161.3 138.5L158 138C156.975 137.853 156.027 137.371 155.303 136.63C154.58 135.888 154.122 134.929 154 133.9C153.975 133.442 154.056 132.984 154.236 132.562C154.416 132.14 154.691 131.765 155.038 131.465C155.386 131.166 155.798 130.95 156.242 130.835C156.686 130.72 157.151 130.708 157.6 130.8Z" fill="#FFC619"/>
<path d="M156.1 137.5L159.2 138C159.719 138.066 160.217 138.243 160.66 138.52C161.103 138.797 161.48 139.168 161.765 139.605C162.051 140.043 162.238 140.538 162.313 141.055C162.388 141.572 162.349 142.099 162.2 142.6C161.987 143.406 161.477 144.102 160.772 144.547C160.067 144.992 159.22 145.154 158.4 145L156.5 144.7C155.463 144.557 154.501 144.079 153.761 143.339C153.021 142.599 152.543 141.637 152.4 140.6C152.371 140.131 152.453 139.663 152.638 139.231C152.824 138.8 153.108 138.418 153.468 138.116C153.828 137.815 154.253 137.602 154.711 137.495C155.168 137.388 155.644 137.39 156.1 137.5Z" fill="#FFC619"/>
<path d="M146.4 148.9L135.6 147.4L136.1 143L146.9 144.6L146.4 148.9Z" fill="#FFC619"/>
<path d="M149 131.4L142.2 130.4C141.876 130.356 141.572 130.219 141.323 130.007C141.075 129.794 140.893 129.514 140.8 129.2L140.2 127.4L139.7 123.7L136 136.7L147 138.3C148.024 138.437 149.064 138.225 149.953 137.699C150.842 137.173 151.528 136.364 151.9 135.4C152.019 134.943 152.035 134.465 151.948 134.001C151.86 133.537 151.671 133.098 151.394 132.716C151.117 132.333 150.758 132.017 150.345 131.79C149.931 131.562 149.472 131.429 149 131.4Z" fill="#FFC619"/>
<path d="M146.8 138.2L136 136.7L136.5 143.9L144.8 145.1C145.813 145.251 146.846 145.043 147.722 144.514C148.598 143.985 149.262 143.166 149.6 142.2C149.737 141.75 149.77 141.275 149.697 140.81C149.623 140.345 149.444 139.904 149.175 139.518C148.905 139.133 148.551 138.814 148.139 138.585C147.728 138.357 147.27 138.225 146.8 138.2Z" fill="#FFC619"/>
<path d="M223.4 182.3C223.7 171.5 214.8 169.8 208.7 166C202.6 162.2 195.4 154.2 187.9 148.8C180.4 143.4 173.9 143.5 161.2 147.4L175.7 175.6C183.9 179.8 185.7 184.4 190.1 190.6C194.5 196.8 200.4 199.2 206.3 198.1C209.4 203.2 210 204.4 214.5 202.8C219 201.2 226.4 197.8 228.4 191.9C230.4 186 227.5 185 223.4 182.3Z" fill="#66BCFF"/>
<path d="M215.9 199.4C212.1 198.5 210.6 196.4 208.2 193.1L206.1 190.3C195.8 188.2 191.6 182.7 189.3 178.7C188.2 176.8 186.2 175.3 184.3 173.9C182.4 172.5 180.5 171 179.4 169.2C178.572 167.852 177.837 166.449 177.2 165C176.4 162.9 175.7 161.5 174.4 161.1C173.1 160.7 170.9 161.5 168.8 162.4C166.893 163.319 164.877 163.991 162.8 164.4C162.628 164.432 162.451 164.398 162.303 164.305C162.155 164.213 162.047 164.068 162 163.9C161.994 163.719 162.051 163.54 162.16 163.395C162.269 163.249 162.424 163.146 162.6 163.1C164.557 162.771 166.447 162.13 168.2 161.2C170.6 160.2 172.6 159.3 174.7 159.9C176.8 160.5 177.5 162.3 178.4 164.5C179.3 166.7 179.6 167.1 180.4 168.5C181.723 170.179 183.311 171.631 185.1 172.8C187.1 174.4 189.2 176 190.4 178.1C192.7 182.2 196.7 187.1 206.6 189.1H206.8L207 189.3C207.9 190.4 208.6 191.5 209.3 192.4C211.5 195.5 212.9 197.4 216.1 198.2C216.187 198.193 216.273 198.208 216.352 198.244C216.431 198.281 216.499 198.337 216.549 198.408C216.6 198.478 216.631 198.561 216.64 198.647C216.649 198.734 216.635 198.821 216.6 198.9C216.607 198.987 216.592 199.074 216.556 199.152C216.519 199.231 216.463 199.299 216.393 199.35C216.322 199.4 216.239 199.431 216.153 199.44C216.067 199.449 215.98 199.435 215.9 199.4Z" fill="#45AAF7"/>
<path d="M175.1 159C173.756 163.293 172.885 167.719 172.5 172.2" stroke="black" stroke-width="2" stroke-miterlimit="10" stroke-linecap="round"/>
<path d="M181 211C171.9 219.2 164.2 216.9 160.6 216.5C157 216.1 157.4 213.5 157.1 211.3C156.8 209.1 156.6 205.8 156.6 205.8C147.5 205.2 146.4 199 146.2 193.5C146 188 144.6 187.2 143.9 183.3C132.928 181.329 122.558 176.859 113.592 170.234C104.626 163.61 97.307 155.009 92.2 145.1L101.7 138.2L122.9 152C137.2 146.7 145.1 144 152.8 143.5C160.5 143 168.1 145.9 170.6 156.6C173.1 167.3 173.4 170.6 175.7 175.7C176.3 177 177.3 178.8 178.3 180.7C181.1 186.4 184 194.4 178.3 203.1C178.995 205.799 179.898 208.441 181 211Z" fill="#8CD9FF"/>
<path d="M107.7 165.3C107.4 158.2 110.1 153.2 115 152.4L102.6 143.8L93.6 147.7C95.9 154.1 101.8 161.1 107.7 165.3Z" fill="black"/>
<path d="M163.6 212.9L163.8 211.6C162 211.3 161.9 210 161.4 203.9V203.1L161 202.9C157 201.9 154.3 199.5 154.1 191.4C154.066 187.553 153.285 183.749 151.8 180.2C151.412 179.367 151.11 178.495 150.9 177.6C150.7 176.8 150.4 176 150.2 175.3C149.071 172.477 148.759 169.393 149.3 166.4C149.7 163.3 149.4 161.6 148.4 160.7C147.4 159.8 144.9 160.1 141.2 161.3H140.7C134.8 163.2 123 167.1 111.1 168.1L112.6 169.2C124.2 168.1 135.4 164.4 141.1 162.6L141.6 162.4C144.6 161.4 146.7 160.9 147.6 161.6C148.5 162.3 148.3 163.6 148 166.1C147.467 169.299 147.812 172.583 149 175.6C149.259 176.316 149.46 177.052 149.6 177.8C149.9 178.7 150.2 179.6 150.6 180.5C152.027 183.924 152.774 187.592 152.8 191.3C153 198.8 155.1 202.5 160.2 204C160.6 210.1 160.8 212.4 163.6 212.9Z" fill="#66BCFF"/>
<path d="M128.1 125.7C125.2 123.2 123 123.4 119.5 124.9C115.8 121.5 111 121 106 122.7C101 124.4 93.3 126.7 88.8 127.9C88.549 127.994 88.276 128.013 88.014 127.956C87.752 127.898 87.512 127.767 87.322 127.578C87.133 127.388 87.002 127.148 86.945 126.886C86.887 126.624 86.907 126.351 87 126.1L90.3 114.1C79.6 122.1 76.1 139.2 79.5 148.5C82.9 157.8 97.7 157.7 102.4 155.1C107.1 152.5 108.7 151.7 114.1 152.7C119.5 153.7 123.7 154.4 130.8 149L135 147.6C136.6 138.5 135.2 131.9 128.1 125.7Z" fill="#3442D9"/>
<path d="M128.1 125.7C125.2 123.2 123 123.4 119.5 124.9C115.8 121.5 111 121 106 122.7C101 124.4 93.3 126.7 88.8 127.9" stroke="black" stroke-width="2" stroke-miterlimit="10" stroke-linecap="round"/>
<path d="M119.5 124.9C122.487 127.213 124.974 130.107 126.813 133.406C128.652 136.706 129.804 140.344 130.2 144.1" stroke="black" stroke-width="2" stroke-miterlimit="10" stroke-linecap="round"/>
<path d="M149.8 121.9C149.845 121.762 149.86 121.616 149.843 121.471C149.826 121.327 149.778 121.188 149.701 121.065C149.625 120.941 149.523 120.835 149.402 120.755C149.281 120.675 149.144 120.622 149 120.6H148C147.722 120.539 147.431 120.589 147.189 120.738C146.946 120.887 146.771 121.124 146.7 121.4L145.8 124.7C145.754 124.846 145.742 125 145.765 125.151C145.788 125.302 145.845 125.445 145.931 125.571C146.018 125.696 146.133 125.8 146.266 125.875C146.399 125.949 146.548 125.992 146.7 126H147.7C147.963 126.034 148.229 125.971 148.45 125.824C148.67 125.677 148.83 125.456 148.9 125.2L149.8 121.9Z" fill="#29CC7A"/>
<path d="M133.8 102.7C134.573 101.135 135.714 99.7813 137.124 98.7538C138.535 97.7262 140.174 97.0559 141.9 96.8001C142.1 96.8001 142.2 96.6001 142.1 96.5001C140.8 91.7001 141.4 89.0001 143.1 85.5001C143.117 85.4747 143.128 85.4458 143.132 85.4156C143.136 85.3853 143.133 85.3545 143.124 85.3256C143.114 85.2966 143.098 85.2703 143.076 85.2485C143.055 85.2268 143.029 85.2102 143 85.2001C137.4 82.8001 135.3 78.8001 134.7 75.8001C134.6 75.6001 134.3 75.5001 134.2 75.7001C131.7 80.7001 128.3 80.9001 125.4 80.5001C125.2 80.5001 125.1 80.7001 125.2 80.8001C128.1 86.4001 126 90.4001 123.1 93.2001C123.085 93.2393 123.077 93.2814 123.079 93.3236C123.081 93.3658 123.092 93.407 123.111 93.4448C123.13 93.4826 123.156 93.5159 123.189 93.5427C123.221 93.5694 123.259 93.589 123.3 93.6001C128.9 94.6001 131.9 98.3001 133.3 102.6C133.4 102.8 133.7 102.9 133.8 102.7Z" fill="#FFC619"/>
<path d="M146.8 138.2L141.1 137.4" stroke="black" stroke-width="2" stroke-miterlimit="10" stroke-linecap="round"/>
<path d="M157.2 137.9L160.4 138.4" stroke="black" stroke-width="2" stroke-miterlimit="10" stroke-linecap="round"/>
<path d="M134.5 75.6001C137 70.0001 136.8 66.1001 136.1 63.9001" stroke="black" stroke-width="2" stroke-miterlimit="10" stroke-linecap="round"/>
<path d="M142.5 85.4001C144.06 85.6392 145.654 85.5397 147.172 85.1083C148.691 84.677 150.099 83.9239 151.3 82.9001" stroke="black" stroke-width="2" stroke-miterlimit="10" stroke-linecap="round"/>
<path d="M133.8 102.7C133.808 103.444 133.707 104.186 133.5 104.9" stroke="black" stroke-width="2" stroke-miterlimit="10" stroke-linecap="round"/>
<path d="M123.6 93.3002C119.9 95.9002 114.3 95.5002 110.4 94.3002" stroke="black" stroke-width="2" stroke-miterlimit="10" stroke-linecap="round"/>
<path d="M125.4 80.5002C124 77.6002 121.4 74.3002 119 73.2002" stroke="black" stroke-width="2" stroke-miterlimit="10" stroke-linecap="round"/>
<path d="M142.1 96.5001C143.39 97.1886 144.77 97.6935 146.2 98.0001" stroke="black" stroke-width="2" stroke-miterlimit="10" stroke-linecap="round"/>
<path d="M131.4 85.8002C133.1 92.4002 135.3 92.0002 136.3 90.0002C137.3 88.0002 138 85.5002 139.6 85.7002C141.2 85.9002 140.8 88.7002 138.9 92.7002C137 96.7002 133.9 97.6002 131 94.1002C128.1 90.6002 128 87.2002 127.9 84.8002C127.8 82.4002 130.3 81.8002 131.4 85.8002Z" fill="#C40655"/>
<path d="M127.4 106.6C128.6 120.4 121.6 127 119.4 140.7" stroke="white" stroke-width="3.00593" stroke-miterlimit="10" stroke-linecap="round"/>
<path d="M143.1 183.4C141.3 177.5 140.5 166.7 145.4 157.2" stroke="black" stroke-width="2" stroke-miterlimit="10" stroke-linecap="round"/>
<path d="M142 168.7C140.872 166.508 140.321 164.064 140.4 161.6" stroke="black" stroke-width="2" stroke-miterlimit="10" stroke-linecap="round"/>
<path d="M92.7 126.8L85.3 129.2" stroke="black" stroke-width="2" stroke-miterlimit="10" stroke-linecap="round"/>
<path d="M166.2 125.9L171.2 127.3" stroke="black" stroke-width="2" stroke-miterlimit="10" stroke-linecap="round"/>
<path d="M255.4 192.2C254.851 193.002 254.214 193.74 253.5 194.4C250.3 197.6 243 201.2 239.1 202.7C236.133 203.639 233.404 205.208 231.1 207.3C228.2 209.6 224.6 212.7 222.1 210.9C218.951 208.001 216.073 204.821 213.5 201.4C213.354 201.221 213.259 201.006 213.224 200.777C213.188 200.549 213.215 200.315 213.3 200.1C214.7 196.1 219.2 190.4 225.7 187.4C225.915 187.315 226.149 187.288 226.377 187.324C226.606 187.359 226.821 187.454 227 187.6C230.8 190.3 233.1 191 236.2 190.9C239.3 190.8 245.3 188.8 250.2 187.4C255.1 186 255.2 188.2 255.4 192.2Z" fill="#FFC619"/>
<path d="M216.3 204.9C218.086 207.038 220.024 209.043 222.1 210.9C224.6 212.7 228.2 209.6 231.1 207.3C233.404 205.208 236.133 203.639 239.1 202.7C243 201.2 250.3 197.6 253.5 194.4C254.214 193.74 254.851 193.002 255.4 192.2C255.2 188.2 254.3 186.2 250.2 187.4C246.1 188.6 243.8 189.6 240.8 190.3C239.908 190.539 239.099 191.021 238.463 191.691C237.828 192.362 237.39 193.196 237.2 194.1C237.1 195.2 236.9 196.3 236.7 197.6C231.3 196.5 226.1 198.3 225 205.4C225 205.4 220.4 202.9 216.3 204.9Z" fill="#FFE75C"/>
<path d="M253.5 194.4L255.4 192.3C255.527 192.089 255.596 191.847 255.6 191.6C255.508 190.842 255.305 190.101 255 189.4C254.2 190.9 252.8 192.4 249.7 194.7C244.8 198.3 239.3 199.6 236 200.7C232.979 201.826 230.222 203.562 227.9 205.8C226.075 207.862 223.67 209.325 221 210L222.1 210.9C224.6 212.7 228.2 209.6 231.1 207.3C233.404 205.208 236.133 203.639 239.1 202.7C243 201.2 250.3 197.6 253.5 194.4Z" fill="white"/>
<path d="M192.5 198.9C187.4 197.5 182.2 199.9 177.6 208.6C176.3 207.6 173.1 206.5 168.3 207.4C163.5 208.3 161.7 210.4 160.9 212C160.424 212.924 160.283 213.984 160.5 215C160.8 216.3 161.2 218 161.8 220.8C162.7 225.1 162.2 228.9 164.6 229.3L198.2 205.1C198.2 205.1 199.1 200.7 192.5 198.9Z" fill="#FFC619"/>
<path d="M192.5 198.9C187.4 197.5 182.2 199.9 177.6 208.6C176.962 209.902 176.394 211.237 175.9 212.6C170.6 212.1 168.1 214.4 167.2 219.5C167.2 219.5 163.7 217.1 161.6 219.9C161.7 220.2 161.7 220.5 161.8 220.8C162.7 225.1 162.2 228.9 164.6 229.3L198.2 205.1C198.2 205.1 199.1 200.7 192.5 198.9Z" fill="#FFE75C"/>
<path d="M198.2 203.7L195.7 201.4C191.4 200.7 187.8 200.6 184 204.9C180.2 209.2 177.7 213.9 173.7 216.7C168 220.9 163.2 222.6 162.5 225.7C161.8 228.8 163.2 229.1 164.6 229.3L198.2 205.1C198.323 204.642 198.323 204.159 198.2 203.7Z" fill="white"/>
<path d="M193.9 199.9L196.3 200.6C196.509 200.634 196.707 200.714 196.88 200.835C197.054 200.957 197.197 201.116 197.3 201.3C198.227 202.866 198.613 204.693 198.4 206.5L189.6 204.9C192.5 203.5 193.5 202.2 193.2 200.5C193.17 200.406 193.168 200.306 193.195 200.211C193.222 200.116 193.276 200.032 193.351 199.968C193.426 199.903 193.518 199.863 193.615 199.851C193.713 199.839 193.812 199.856 193.9 199.9Z" fill="white"/>
<path d="M164.8 229.4C173.4 231.1 177.2 228.4 180.9 224.6C182.435 222.902 184.222 221.452 186.2 220.3C191.3 217.4 195.3 214.3 198 209.4C200.7 204.5 192.4 201.3 187 205.8C181.6 210.3 181.3 215.6 170.6 222.2C163.3 226.8 162.3 228.9 164.8 229.4Z" fill="black"/>
<path d="M166.023 213.793C166.073 212.801 165.622 211.971 165.015 211.94C164.409 211.909 163.876 212.689 163.826 213.682C163.775 214.675 164.227 215.505 164.833 215.535C165.44 215.566 165.973 214.786 166.023 213.793Z" fill="white"/>
<path d="M255.7 191C255.524 189.986 255.187 189.007 254.7 188.1C254.6 188 254.5 187.9 254.4 188H254.3C254.1 188 254.1 188.1 254.1 188.2C254.6 190.3 254.8 192.7 253.7 194.1C256 192.3 255.8 191.3 255.7 191Z" fill="white"/>
<path d="M220.024 201.633C220.941 201.428 221.43 200.126 221.116 198.724C220.803 197.323 219.806 196.353 218.89 196.558C217.974 196.763 217.485 198.065 217.798 199.466C218.111 200.867 219.108 201.837 220.024 201.633Z" fill="white"/>
<path d="M294.999 351.4C337.299 351.4 371.999 333.8 417.599 293.6C463.199 253.4 479.199 240.2 492.099 227.7C504.999 215.2 504.099 207.1 497.399 191.1C490.699 175.1 486.299 177.4 486.299 177.4C485.499 164.4 472.799 142.9 458.799 125.6C444.799 108.3 436.399 111.1 420.999 111.1C405.599 111.1 400.499 115.3 393.599 133.7C386.699 152.1 369.499 167.7 336.999 173.4C304.499 179.1 286.699 178.8 285.799 195.1C284.899 211.4 285.799 239.5 271.399 261.7C253.498 270.352 234.679 276.96 215.299 281.4C203.899 284 201.499 291.5 200.399 301.3C199.299 311.1 203.299 316.4 205.199 319.5C201.299 323.2 202.099 324.8 203.999 333.5C204.799 337 205.699 340.5 206.499 343.6C207.151 345.853 208.518 347.833 210.394 349.24C212.27 350.647 214.554 351.405 216.899 351.4H294.999Z" fill="#66BCFF"/>
<path d="M200.399 301.3C199.299 311.1 203.299 316.4 205.199 319.5L283.499 328.5L359.299 317.4C359.299 317.4 409.299 277.1 402.499 263.7C395.699 250.3 381.399 262.9 362.299 275.9C343.199 288.9 323.399 290.1 300.699 286.8C277.999 283.5 250.499 273.8 215.299 281.4C203.899 284 201.499 291.5 200.399 301.3Z" fill="#45AAF7"/>
<path d="M410.599 257C410.699 239.7 410.099 235.6 415.899 236.4C421.699 237.2 431.199 239.1 431.199 239.1L420.899 255.4L410.599 257Z" fill="#A3E1FF"/>
<path d="M440.999 230.1C440.999 221.7 440.299 216.2 442.599 215C444.899 213.8 447.599 215.3 452.399 219.6C457.199 223.9 440.999 230.1 440.999 230.1Z" fill="#A3E1FF"/>
<path d="M210.199 317.4C208.899 307.3 209.199 299.3 211.899 297.3C214.599 295.3 217.199 299.9 219.099 303.9C221.521 308.976 224.543 313.743 228.099 318.1L210.199 317.4Z" fill="#A3E1FF"/>
<path d="M296.999 319.6C300.299 306.1 303.099 302.8 305.899 302.6C308.699 302.4 310.099 308.8 314.099 317.9L307.499 321L296.999 319.6Z" fill="#A3E1FF"/>
<path d="M476.999 196.1C434.499 237.2 409.099 259.8 373.499 286.3C337.899 312.8 321.999 319.7 292.099 319.7C262.199 319.7 242.999 302.9 205.199 319.5C201.299 323.2 202.099 324.8 203.999 333.5C204.799 337 205.699 340.5 206.499 343.6C207.151 345.853 208.518 347.833 210.394 349.24C212.27 350.647 214.554 351.405 216.899 351.4H294.999C337.299 351.4 371.999 333.8 417.599 293.6C463.199 253.4 479.199 240.2 492.099 227.7C504.999 215.2 504.099 207.1 497.399 191.1C490.699 175.1 486.299 177.4 486.299 177.4C486.299 181.9 486.599 186.7 476.999 196.1Z" fill="white"/>
<path d="M497.899 192.2C497.799 198 494.199 204.6 484.399 213.6C465.199 231.1 425.499 266.9 398.199 290.1C368.299 315.8 340.499 337 303.499 337C290.599 337 276.499 334.3 262.799 331.7C238.699 327.1 215.799 322.8 204.199 334.4C204.299 335 204.499 335.7 204.599 336.3C215.399 324.4 238.299 328.7 262.499 333.3C276.299 335.9 290.499 338.6 303.499 338.6C340.999 338.6 370.199 316.2 399.199 291.4C426.499 268.1 466.299 232.2 485.399 214.8C492.599 208.2 497.799 202.1 499.099 195.4L497.899 192.2Z" fill="#FFE75C"/>
<path d="M385.999 319L372.099 287.4C366.766 291.333 361.866 294.833 357.399 297.9L356.199 299.3C361.399 297.1 366.599 300 366.999 308.9C367.099 313.7 367.099 323.4 367.099 331.2C373.616 327.479 379.925 323.407 385.999 319Z" fill="black"/>
<path d="M222.699 343.4C214.699 343.5 210.799 346.7 213.999 349.8C215.164 350.882 216.71 351.457 218.299 351.4H286.999C252.799 351.4 249.299 343 222.699 343.4Z" fill="black"/>
<path d="M458.299 166.9C447.999 180.1 444.399 185.3 448.699 199.4C450.499 205.5 452.799 212 454.699 217.4L476.999 196.1C486.599 186.7 486.299 181.9 486.299 177.4C485.599 166.3 476.299 149 464.799 133.4C470.599 141.8 468.599 153.7 458.299 166.9Z" fill="#45AAF7"/>
<path d="M444.599 150.1C450.499 127.6 449.899 112.6 435.399 111.1C431.099 110.7 426.499 111.1 420.999 111.1C405.499 111.1 400.499 115.3 393.599 133.7C386.699 152.1 369.499 167.7 336.999 173.4C304.499 179.1 286.699 178.8 285.799 195.1C284.899 211.4 285.799 239.5 271.399 261.7C269.299 265.4 271.799 267.9 301.699 267.9C331.599 267.9 349.399 266.1 354.399 253.6C359.399 241.1 366.599 213.8 370.199 203C373.799 192.2 373.199 186 393.099 181.5C412.999 177 438.999 171.8 444.599 150.1Z" fill="#8CD9FF"/>
<path d="M375.499 178.7C391.499 172.1 402.799 173.6 419.799 165.5C436.799 157.4 438.999 151.4 441.099 140.3C443.199 129.2 444.699 116.1 434.399 115.2C424.099 114.3 414.799 114.7 410.099 116.3C405.399 117.9 404.199 120.8 399.099 131.3C393.999 141.8 391.499 157.4 368.599 167.6L375.499 178.7Z" fill="black"/>
<path d="M240.699 312.4C240.799 317.5 242.199 324.8 244.999 325.5C247.799 326.2 249.099 320.5 251.999 313.4C248.899 310.2 240.699 306.9 240.699 312.4Z" fill="#A3E1FF"/>
<path d="M368.299 289.2C365.821 289.302 363.397 289.951 361.199 291.1C351.899 295.8 351.999 299.8 352.299 301.2C364.999 293.5 370.599 302 374.199 326.9C375.599 336.7 378.099 341.5 385.299 341.5C394.099 341.5 399.299 335.3 398.699 319.3C398.564 316.281 398.23 313.275 397.699 310.3C395.199 296.9 389.999 283.4 377.399 283.4C375.509 283.494 373.677 284.078 372.081 285.095C370.485 286.112 369.182 287.527 368.299 289.2Z" fill="#FF78B9"/>
<path d="M462.199 244.1C456.799 248.9 451.399 249.3 450.199 245.1C448.999 240.9 452.299 233.5 457.699 228.8L467.099 220.5C472.499 215.7 477.899 215.3 479.099 219.5C480.299 223.7 476.899 231.1 471.599 235.8L462.199 244.1Z" fill="#FFA8D2"/>
<path d="M368.299 289.2C376.699 290.1 383.099 294 385.799 304.6C387.699 312.1 387.099 320.9 388.399 328.5" stroke="black" stroke-width="2" stroke-linecap="round" stroke-linejoin="round"/>
<path d="M463.999 169.2L461.499 172.6C453.599 182.9 450.699 186.7 459.099 213.2L460.399 212C452.499 187 455.099 183.5 462.699 173.6L465.299 170.2C471.499 161.8 473.799 153.5 473.599 146.4L471.799 143.6C472.799 150.9 470.799 160 463.999 169.2Z" fill="#5865F2"/>
<path d="M350.099 307.6C350.899 303.1 349.899 300.9 347.599 301.2C345.299 301.5 343.299 302.9 341.099 308C342.899 327.5 348.099 319.9 350.099 307.6Z" fill="#A3E1FF"/>
<path d="M432.301 118.4L448.001 116.4C450.501 116.1 451.401 110.4 452.501 103.2C453.601 96.0001 452.301 82.9001 452.301 82.9001L436.101 87.8001L432.301 118.4Z" fill="#FF78B9"/>
<path d="M475.901 78.2001C469.201 70.7001 435.201 44.5001 435.201 44.5001L427.201 56.0001C427.201 56.0001 438.501 68.5001 446.601 76.9001C430.201 78.2001 400.601 82.1001 400.601 82.1001C379.601 77.9001 370.701 75.9001 370.701 75.9001L392.301 55.4001L384.401 43.6001C384.401 43.6001 363.801 56.2001 352.201 65.3001C340.601 74.4001 338.701 85.6001 349.701 94.1001C360.701 102.6 364.401 105.2 364.401 105.2L435.301 112.5C456.101 106.7 468.501 100.4 476.001 93.9001C483.501 87.4001 482.601 85.7001 475.901 78.2001Z" fill="#FFC619"/>
<path d="M358.501 74.8C361.001 75.2 365.401 76.4001 365.401 76.4001" stroke="black" stroke-width="2" stroke-linecap="round" stroke-linejoin="round"/>
<path d="M430.901 40.9001L423.801 52.8001L431.801 61.0002C434.401 58.1002 437.001 53.0001 436.201 45.3001L430.901 40.9001Z" fill="black"/>
<path d="M384.901 92.9001C375.301 81.1001 371.901 76.0001 369.901 70.1001C368.501 65.8001 377.001 68.4001 388.001 71.7001C399.001 75.0001 397.301 78.1001 384.901 92.9001Z" fill="#FF78B9"/>
<path d="M371.101 75.6001C361.001 86.9001 360.801 100.7 361.901 120C361.901 120 344.501 137.5 347.001 152.8C349.501 168.1 373.301 174.7 400.401 174.4C422.201 174.2 424.601 169.1 426.601 158.8C427.801 152.1 428.701 144.4 429.301 138.4C429.906 132.093 431.492 125.918 434.001 120.1C447.401 89.0001 436.601 77.8001 436.601 77.8001L400.401 80.7001L371.101 75.6001Z" fill="#FF78B9"/>
<path d="M379.101 59.4001C370.601 65.7001 372.401 75.3001 384.401 88.5001L389.801 93.9001L424.701 88.2001C435.901 74.3001 433.701 65.0001 429.601 59.2001C435.301 49.8001 435.701 43.3001 435.601 37.5001C435.501 27.7001 426.601 12.3001 404.201 12.5001C392.001 12.6001 381.201 17.4001 377.301 32.9001C375.901 38.3001 375.601 47.1001 379.101 59.4001Z" fill="#FFE75C"/>
<path d="M422.301 25.2001C422.568 25.1986 422.833 25.2536 423.077 25.3613C423.322 25.469 423.541 25.6272 423.72 25.8253C423.9 26.0235 424.035 26.2573 424.118 26.5115C424.201 26.7656 424.229 27.0343 424.201 27.3001L423.001 40.8001C422.646 43.8279 421.222 46.6296 418.986 48.7011C416.749 50.7726 413.847 51.9779 410.801 52.1001H408.101C404.917 52.1303 401.831 50.9999 399.42 48.9202C397.009 46.8405 395.438 43.9539 395.001 40.8001L394.501 36.3001C394.428 35.77 394.164 35.2847 393.759 34.935C393.354 34.5853 392.836 34.3951 392.301 34.4001C391.75 34.3978 391.219 34.602 390.812 34.9722C390.405 35.3425 390.151 35.852 390.101 36.4001L389.501 43.6001C389.279 45.9795 388.187 48.1935 386.434 49.8175C384.681 51.4415 382.39 52.3611 380.001 52.4001C378.568 52.4542 377.141 52.1966 375.818 51.6451C374.495 51.0936 373.307 50.2613 372.337 49.2057C371.367 48.1502 370.638 46.8966 370.2 45.5317C369.762 44.1667 369.626 42.7229 369.801 41.3001L371.001 27.7001C371.072 27.1603 371.331 26.6631 371.734 26.2968C372.137 25.9306 372.657 25.7192 373.201 25.7001L422.301 25.2001Z" fill="black"/>
<path d="M423.601 25.7001L435.601 37.5001V39.9001L423.701 31.6001L423.601 25.7001Z" fill="black"/>
<path d="M436.601 77.7C430.972 72.383 424.344 68.2362 417.101 65.5C410.601 63.2 409.101 62.6 407.601 66.3C406.101 70 404.501 74.2 403.901 75.6C403.301 77 396.201 81.8 391.901 85.4C387.601 89 383.101 96.7 383.101 96.7L428.701 100.2L436.601 77.7Z" fill="#FF78B9"/>
<path d="M446.401 76.7001L452.301 82.9001C449.601 91.3001 447.901 101.8 446.901 113.5L423.601 115.2L436.601 77.8001L446.401 76.7001Z" fill="#FF78B9"/>
<path d="M371.101 75.6L366.801 74.8C366.141 74.7044 365.469 74.7532 364.83 74.9432C364.191 75.1331 363.601 75.4596 363.101 75.9001C358.206 80.3554 354.904 86.2912 353.701 92.8C352.401 100.4 352.801 101.2 361.601 105.9C367.501 109.1 373.601 95.1 376.901 85.6C377.284 84.5643 377.434 83.4567 377.339 82.3564C377.245 81.2561 376.909 80.1902 376.355 79.2349C375.8 78.2796 375.042 77.4585 374.134 76.8301C373.226 76.2018 372.19 75.7818 371.101 75.6Z" fill="#FF78B9"/>
<path d="M375.301 153.4C367.645 144.477 359.026 136.428 349.601 129.4L327.201 141.1L334.501 162.9C334.501 162.9 340.501 170.5 346.101 176.5C351.701 182.5 361.801 182.7 380.401 184.3C387.401 171.8 384.201 163.9 375.301 153.4Z" fill="#2835BD"/>
<path d="M338.801 162.5L340.801 152.8" stroke="black" stroke-width="2" stroke-linecap="round" stroke-linejoin="round"/>
<path d="M417.401 149.3C415.601 144.4 410.101 140.5 385.501 139.3L376.401 130.1L351.101 149.4C360.101 164.6 370.301 182.9 380.401 184.3C390.501 185.7 399.601 185 411.601 177.7C419.201 173 420.201 170.8 420.401 166.8C420.248 160.853 419.238 154.959 417.401 149.3Z" fill="#3442D9"/>
<path d="M444.601 150.1C439.001 171.8 413.001 176.9 393.101 181.5C375.101 185.6 373.901 191 371.201 200L357.601 196.4V182.4L375.501 178.7C391.501 172.1 402.801 173.6 419.801 165.5C436.801 157.4 439.001 151.4 441.101 140.3C442.401 133.8 443.401 126.4 441.801 121.3L447.501 122.1C449.001 128.9 447.701 138.5 444.601 150.1Z" fill="#8CD9FF"/>
<path d="M292.401 171.6C291.075 172.403 290.058 173.629 289.514 175.08C288.969 176.531 288.93 178.123 289.401 179.6C292.301 188.8 293.601 195.9 290.901 218.3C288.201 240.7 283.701 253.1 281.601 257.7C281.472 257.973 281.41 258.273 281.419 258.575C281.429 258.876 281.511 259.171 281.657 259.435C281.804 259.699 282.011 259.924 282.262 260.092C282.513 260.26 282.801 260.366 283.101 260.4C294.301 262.1 311.101 261.9 329.501 259.5C332.605 259.093 335.546 257.869 338.023 255.954C340.5 254.039 342.425 251.502 343.601 248.6C348.331 236.862 352.208 224.797 355.201 212.5C361.901 184.9 361.101 185.4 375.501 178.7C374.401 168.8 374.501 159.3 363.701 157.9C351.101 156.3 337.301 162.5 317.501 167.9C313.001 163.9 308.901 161.9 292.401 171.6Z" fill="#45AAF7"/>
<path d="M346.601 159.4C338.301 161.4 328.901 164.8 317.501 167.9C314.201 165 311.101 163.1 303.201 166.2C302.908 166.948 302.674 167.717 302.501 168.5C298.901 186.4 292.101 215.7 312.501 214.1C332.901 212.5 335.201 200.4 334.601 189.4C334.001 178.4 332.701 172.3 334.601 169.1C336.501 165.9 343.201 160.3 346.601 159.4Z" fill="#287CEB"/>
<path d="M364.901 184.7C363.501 173 362.601 167.4 359.401 165.2C356.201 163 355.101 163.7 350.901 164.6C346.701 165.5 341.401 167.1 334.601 169.1C321.901 172.8 306.101 177.5 300.101 177.1L298.101 176.8C299.501 175.3 308.101 172.2 313.801 170.1L317.801 168.6C317.895 168.577 317.983 168.535 318.06 168.477C318.137 168.418 318.201 168.344 318.248 168.26C318.295 168.175 318.324 168.082 318.333 167.985C318.342 167.889 318.331 167.792 318.301 167.7L317.501 167.9L316.801 167.3L313.201 168.6C299.901 173.5 296.101 175.2 296.401 177.1C296.701 179 298.201 178.6 300.001 178.7C306.201 179.1 321.501 174.6 335.101 170.6C341.801 168.6 347.601 166.9 351.201 166.2C354.801 165.5 357.101 165.5 358.501 166.5C359.901 167.5 362.101 174.5 363.401 186.3L364.901 184.7Z" fill="black"/>
<path d="M370.001 39.3001L389.001 25.5001L381.901 25.6001L370.501 33.9001L370.001 39.3001Z" fill="#5865F2"/>
<path d="M374.601 51.0001C376.238 51.9546 378.106 52.4391 380.001 52.4001C382.39 52.3611 384.681 51.4415 386.434 49.8175C388.187 48.1935 389.279 45.9795 389.501 43.6001L389.801 40.0001L374.601 51.0001Z" fill="#5865F2"/>
<path d="M422.301 25.2001H414.401L394.901 39.3001V40.8001C395.126 42.3465 395.634 43.8382 396.401 45.2001L423.501 25.7001C423.164 25.4107 422.744 25.2356 422.301 25.2001Z" fill="#5865F2"/>
<path d="M423.001 40.8L423.601 34.3L401.401 50.4001C403.451 51.5343 405.758 52.1199 408.101 52.1H410.801C413.847 51.9779 416.749 50.7726 418.986 48.701C421.222 46.6295 422.646 43.8278 423.001 40.8Z" fill="#5865F2"/>
<path d="M388.501 53.6001C391.169 53.0179 393.932 53.0179 396.601 53.6001" stroke="black" stroke-width="2" stroke-linecap="round" stroke-linejoin="round"/>
<path d="M304.701 133C304.801 133.3 304.901 133.5 305.001 133.5C305.101 133.5 305.201 133.4 305.301 133.1" fill="black"/>
<path d="M321.701 128.4C310.901 132.6 295.801 141.4 282.801 148.7C275.601 152.7 273.401 155.1 277.201 162.4C281.001 169.7 288.201 176.7 293.601 181.5C299.001 186.3 302.001 184.3 306.001 181.7L334.501 162.9L349.601 129.4C343.301 125 332.601 124.1 321.701 128.4Z" fill="#2835BD"/>
<path d="M291.201 168.1C295.801 169 295.801 169.5 301.501 165.8C307.201 162.1 335.901 144.8 338.801 142.9" stroke="#4150F2" stroke-width="2" stroke-miterlimit="10" stroke-linecap="round"/>
<path d="M363.401 117.8C358.901 114.5 355.801 114.3 331.601 112.3C307.401 110.3 296.101 107.8 293.301 112.2C290.501 116.6 293.001 127.6 295.801 135.9C298.601 144.2 300.201 146.9 304.101 147.2C308.001 147.5 344.401 148.7 351.101 149.4L354.401 155L385.501 139.3C385.501 139.3 367.801 121.1 363.401 117.8Z" fill="#3442D9"/>
<path d="M286.601 161.4C280.601 156.5 278.201 155.6 278.901 158.9C279.601 162.2 283.401 167.1 287.501 171.5C291.601 175.9 296.301 180.4 297.901 180.1C299.501 179.8 297.601 176.8 295.101 172C292.966 167.959 290.081 164.362 286.601 161.4Z" fill="black"/>
<path d="M293.201 168.7L288.201 172.2L284.101 175.1C279.201 178.7 281.201 181.6 281.601 185C282.001 188.4 280.901 190.9 278.601 190.9C276.301 190.9 272.901 181.3 270.501 176.7C268.101 172.1 260.201 168.4 256.101 164.9C254.401 163.4 254.001 160.9 256.101 160.1C255.201 158.8 254.001 155.5 257.001 154.5C260.001 153.5 264.501 159 267.001 160.7C269.501 162.4 272.601 164 274.901 163C276.482 162.296 278.018 161.494 279.501 160.6L282.901 158.5L286.601 161.4C289.112 163.533 291.331 165.987 293.201 168.7Z" fill="#FF78B9"/>
<path d="M444.601 150.1C439.001 171.8 413.001 176.9 393.101 181.5C373.201 186.1 373.801 192.1 370.201 203C366.601 213.9 359.401 241.2 354.401 253.6L420.901 214.5L448.101 162.9L444.601 150.1Z" fill="#66BCFF"/>
<path d="M367.501 237.9C365.301 245.6 363.501 251.4 362.501 255.6C361.501 259.8 366.101 259.4 371.001 258C375.901 256.6 378.001 254.5 377.201 250.2C376.401 245.9 369.901 229.2 367.501 237.9Z" fill="white"/>
<path d="M286.601 161.4L282.901 158.5C282.001 158.4 281.501 158.4 281.101 158.7C280.701 159 280.801 159.2 280.901 159.7C283.201 159.3 288.901 163.4 289.101 171.5C290.401 172.1 291.101 172.5 291.601 172.2C292.101 171.9 292.801 170.5 293.201 168.7C291.331 165.987 289.112 163.533 286.601 161.4Z" fill="black"/>
<path d="M277.801 186.5C276.801 182.7 273.401 174.9 270.501 171.8C267.601 168.7 263.001 161.4 261.501 159C260.001 156.6 256.101 153.6 255.201 156.3C255.006 157.635 255.328 158.994 256.101 160.1C254.001 160.9 254.401 163.4 256.101 164.9C260.201 168.4 267.901 171.6 270.501 176.7C273.101 181.8 274.901 189.2 277.701 190.7L278.501 190.9C279.001 190.8 278.701 189.4 277.801 186.5Z" fill="#DE3A93"/>
<path d="M392.201 6.5001C390.934 10.0718 390.794 13.9465 391.801 17.6001C391.96 18.2428 392.335 18.8115 392.863 19.2118C393.39 19.612 394.039 19.8196 394.701 19.8001H400.801C401.48 19.8032 402.152 19.6623 402.773 19.3865C403.393 19.1106 403.948 18.7063 404.401 18.2001C408.101 14.3001 414.801 13.3001 420.001 15.5001L423.101 11.0001C423.433 10.5593 423.596 10.0137 423.559 9.4629C423.522 8.91213 423.289 8.39293 422.901 8.0001C419.869 5.13476 416.251 2.9622 412.297 1.63271C408.343 0.303222 404.148 -0.151461 400.001 0.300101C398.254 0.509967 396.6 1.20074 395.223 2.29545C393.846 3.39015 392.799 4.84577 392.201 6.5001Z" fill="#FF8C19"/>
<path d="M447.301 108.8C446.901 113.5 447.701 115.1 448.801 113.2C449.574 111.494 450.048 109.667 450.201 107.8L447.301 108.8Z" fill="black"/>
<path d="M435.301 78.1001C426.701 79.2001 421.901 80.7001 417.601 82.7001" stroke="black" stroke-width="2" stroke-linecap="round" stroke-linejoin="round"/>
<path d="M452.901 84.1001L456.601 87.8001" stroke="black" stroke-width="2" stroke-linecap="round" stroke-linejoin="round"/>
<path d="M431.001 119.6C431.001 119.6 426.501 122.9 423.601 125.3" stroke="black" stroke-width="2" stroke-linecap="round" stroke-linejoin="round"/>
<path d="M391.501 93.8L390.701 105.6H385.401C385.711 101.727 386.313 97.8828 387.201 94.1C387.399 93.4543 387.703 92.8461 388.101 92.3C389.431 90.6348 390.978 89.1551 392.701 87.9001L401.901 81.0001C404.505 79.0803 406.487 76.4374 407.601 73.4001C408.901 70.0001 410.501 65.7 411.201 64.8" stroke="#F551A0" stroke-width="2" stroke-linecap="round" stroke-linejoin="round"/>
<path d="M447.201 77.5001C443.001 88.1001 438.401 106.1 441.901 114.7C442.252 115.51 442.688 116.281 443.201 117L445.201 116.8C444.444 116.015 443.834 115.101 443.401 114.1C440.201 106.4 444.201 89.8001 448.401 78.8001L447.201 77.5001Z" fill="#F551A0"/>
<path d="M354.601 101.4C355.001 101.872 355.473 102.277 356.001 102.6C357.001 90.9001 361.801 81.0001 369.201 75.2001L367.201 74.9001C360.301 80.8001 355.701 90.3001 354.601 101.4Z" fill="#F551A0"/>
<path d="M434.901 118.9L423.801 120.2" stroke="black" stroke-width="2" stroke-linecap="round" stroke-linejoin="round"/>
<path d="M420.001 161.3C416.001 164 407.501 168.1 402.101 169.3C400.752 169.577 399.378 169.711 398.001 169.7C395.835 169.781 393.683 169.331 391.731 168.39C389.779 167.448 388.087 166.045 386.801 164.3L381.601 157C377.101 150.6 371.401 142.7 367.301 137C367.201 136.8 367.201 136.7 367.101 136.6C360.901 127.9 357.601 124.1 353.001 123.4C348.401 122.7 335.101 121.5 311.801 119.7C306.001 119.3 305.101 119.4 304.001 122C303.969 122.098 303.916 122.188 303.846 122.263C303.776 122.338 303.69 122.397 303.595 122.435C303.499 122.473 303.397 122.49 303.294 122.484C303.191 122.478 303.091 122.449 303.001 122.4C302.817 122.314 302.668 122.169 302.577 121.987C302.486 121.806 302.459 121.599 302.501 121.4C304.101 117.5 306.501 117.7 311.901 118.1C325.501 119.2 348.801 121 353.301 121.8C357.801 122.6 362.701 127.7 368.401 135.7C368.401 135.8 368.501 135.9 368.601 136C372.701 141.7 378.301 149.7 382.901 156L388.101 163.4C390.901 167.3 396.001 168.9 401.701 167.7C407.401 166.5 416.701 161.7 419.801 159.5C419.917 160.094 419.984 160.696 420.001 161.3Z" fill="#5865F2"/>
<path d="M296.401 113.9C293.501 116.6 295.001 121.9 297.001 129.2C299.001 136.5 301.501 143.1 302.801 142.9C304.101 142.7 304.801 140.1 305.101 136.3C305.401 132.5 305.301 125.7 303.801 120.6C302.301 115.5 298.601 111.8 296.401 113.9Z" fill="black"/>
<path d="M305.301 133.1L297.901 132.2C294.301 131.7 290.701 131.4 287.101 131.2C286.401 135.5 284.901 141 282.801 143.2C280.701 145.4 277.001 145.3 276.601 140.3C276.201 135.3 276.501 128.2 273.201 113.4C272.001 107.9 269.801 104.6 269.001 100.4C268.201 96.2001 270.601 95.5001 272.801 95.9001C272.301 93.1001 272.501 89.5001 276.001 89.0001C279.501 88.5001 280.901 91.5001 280.901 95.4001C281.42 94.6815 282.168 94.1612 283.023 93.9249C283.877 93.6886 284.786 93.7504 285.601 94.1001C288.001 95.0001 288.501 98.0001 288.201 102.8C287.901 107.6 287.801 112.7 289.801 114.4C291.801 116.1 292.301 115.5 295.101 115.9L301.901 116.5C302.712 117.777 303.351 119.156 303.801 120.6C304.835 124.685 305.339 128.886 305.301 133.1Z" fill="#FF78B9"/>
<path d="M305.301 133.1C305.339 128.886 304.835 124.685 303.801 120.6C303.351 119.156 302.712 117.777 301.901 116.5H301.001C303.501 119.7 305.001 128.1 301.001 132.6C301.564 133.077 302.207 133.449 302.901 133.7C303.746 133.781 304.593 133.57 305.301 133.1Z" fill="black"/>
<path d="M285.701 100C286.101 95.3001 282.801 93.3001 280.901 95.4001C280.901 91.5001 279.601 88.5001 276.001 89.0001C272.401 89.5001 272.301 93.1001 272.801 95.9001C270.601 95.5001 268.201 96.3001 269.001 100.4C269.801 104.5 272.001 107.9 273.201 113.4C276.501 128.2 276.101 134.4 276.601 140.3C276.608 141.489 276.993 142.645 277.701 143.6C280.001 146 281.001 143.1 280.901 138.7C280.846 131.814 281.247 124.933 282.101 118.1C283.101 110.1 285.401 104.7 285.701 100Z" fill="#DE3A93"/>
<path d="M276.401 89.0001C279.501 88.9001 279.601 92.8001 279.501 97.1001L280.901 95.4001C280.901 91.7001 279.701 88.7001 276.401 89.0001Z" fill="#FF78B9"/>
<path d="M356.701 138.2C355.129 142.074 353.257 145.819 351.101 149.4C355.701 147.4 357.601 146.4 357.601 146.4" stroke="black" stroke-width="2" stroke-linecap="round" stroke-linejoin="round"/>
<path d="M386.401 140.2L397.001 151C405.601 152.1 407.601 153.9 409.901 156.8" stroke="black" stroke-width="2" stroke-linecap="round" stroke-linejoin="round"/>
<path d="M397.001 151L406.701 151.3" stroke="black" stroke-width="2" stroke-linecap="round" stroke-linejoin="round"/>
<path d="M370.601 252.1C369.301 255.4 367.101 257.6 365.701 257.1C364.301 256.6 364.301 255 365.701 251.9C366.304 250.642 366.806 249.338 367.201 248C368.001 245.1 369.501 244.6 370.601 245.1C371.701 245.6 372.001 248.7 370.601 252.1Z" fill="black"/>
<path d="M292.001 207.6C291.901 209.3 291.701 211.2 291.501 213.2L313.901 215.7L290.301 223.1C289.801 226.5 289.301 229.6 288.801 232.5L304.401 234.1C299.101 236 293.301 238 287.101 240.4C286.301 243.933 285.501 246.933 284.701 249.4L292.001 249.6L283.801 251.9C283.2 253.881 282.465 255.819 281.601 257.7C281.499 257.957 281.432 258.226 281.401 258.5C290.301 255.7 299.301 253.4 308.001 251.5C316.883 253.103 325.639 255.342 334.201 258.2C336.365 257.29 338.309 255.926 339.901 254.2C336.501 253 331.501 251.4 325.401 249.7L321.901 248.8C330.201 247.4 337.901 246.2 344.901 245.3C346.001 242.5 347.201 239.2 348.401 235.6C341.901 234.1 335.201 232.9 328.701 231.8C338.101 228.9 345.501 226.8 351.701 225.3C352.701 221.9 353.701 218.3 354.701 214.5L341.201 213.1L356.101 208.5L357.701 202.2L327.201 211.5L292.001 207.6ZM342.301 240C332.101 241.4 320.201 243.2 307.801 245.9C303.134 245.1 298.234 244.5 293.101 244.1C302.001 240.8 309.801 238 316.801 235.7C324.901 236.8 333.701 238.2 342.301 240ZM350.901 219.7C342.401 221.8 331.401 224.9 316.301 230C308.201 228.9 300.901 228.1 295.001 227.5L327.801 217.2L350.901 219.7Z" fill="#3F4EEB"/>
<path d="M292.401 199.7C292.301 201.6 292.301 203.7 292.101 206.1C317.701 205.3 347.001 202.2 358.001 200.9C358.601 198.3 359.201 196.1 359.801 194.2C351.901 195.2 320.001 198.9 292.401 199.7Z" fill="#3F4EEB"/>
<path d="M335.701 252.8L339.901 254.2C338.309 255.926 336.365 257.29 334.201 258.2L330.201 256.9C332.301 255.934 334.175 254.537 335.701 252.8Z" fill="black"/>
<path d="M345.101 234.9L348.401 235.6C347.201 239.2 346.001 242.5 344.901 245.3L340.501 245.9C342.368 242.382 343.908 238.7 345.101 234.9Z" fill="black"/>
<path d="M350.801 214.1L354.701 214.5C353.701 218.3 352.701 221.9 351.701 225.3L347.701 226.3C348.301 224.3 348.801 222.2 349.301 220.1C349.401 219.9 349.401 219.7 349.501 219.5C349.901 217.7 350.401 215.9 350.801 214.1Z" fill="black"/>
<path d="M353.401 203.5L357.701 202.2L356.101 208.5L351.801 209.8C352.301 207.7 352.901 205.6 353.401 203.5Z" fill="black"/>
<path d="M359.801 194.2C359.201 196.1 358.601 198.3 358.001 200.9L353.901 201.3L355.701 194.7L359.801 194.2Z" fill="black"/>
<path d="M283.801 251.9L288.801 250.5C288.101 252.7 287.401 254.8 286.601 256.9L281.401 258.5C281.432 258.226 281.499 257.957 281.601 257.7C282.465 255.819 283.2 253.881 283.801 251.9Z" fill="black"/>
<path d="M287.101 240.4L291.601 238.7C290.901 242.5 290.101 246 289.101 249.5H284.701C285.501 246.967 286.301 243.933 287.101 240.4Z" fill="black"/>
<path d="M290.301 223.1L294.001 221.9C293.601 225.8 293.101 229.4 292.601 232.9L288.801 232.5C289.301 229.6 289.801 226.5 290.301 223.1Z" fill="black"/>
<path d="M292.001 207.6L295.401 208L294.801 213.5L291.501 213.2C291.701 211.2 291.901 209.3 292.001 207.6Z" fill="black"/>
<path d="M296.201 199.6L295.601 206H292.101C292.301 203.6 292.301 201.5 292.401 199.6H296.201Z" fill="black"/>
<path d="M393.601 225L393.801 233.5C393.807 233.941 393.93 234.372 394.156 234.75C394.383 235.128 394.706 235.44 395.091 235.653C395.477 235.866 395.913 235.974 396.353 235.964C396.794 235.955 397.224 235.829 397.601 235.6C398.052 235.305 398.4 234.877 398.597 234.375C398.794 233.874 398.83 233.323 398.701 232.8L395.801 222.8L393.601 225Z" fill="white"/>
<path d="M379.001 199.4C387.001 201.9 388.601 210.4 390.301 224.8C390.335 225.154 390.464 225.493 390.673 225.781C390.882 226.07 391.164 226.297 391.49 226.439C391.816 226.582 392.174 226.635 392.528 226.593C392.881 226.551 393.217 226.415 393.501 226.2L396.301 224.1C397.034 223.576 397.609 222.86 397.962 222.031C398.315 221.202 398.432 220.292 398.301 219.4C398.001 217.6 397.501 214.8 397.001 211C395.801 203.6 390.901 194.6 381.501 193.5C380.991 193.449 380.478 193.556 380.03 193.806C379.583 194.057 379.224 194.439 379.001 194.9C378.523 196.039 378.285 197.265 378.301 198.5C378.312 198.704 378.385 198.899 378.51 199.06C378.635 199.22 378.806 199.339 379.001 199.4Z" fill="#3F4EEB"/>
</g>
<defs>
<filter id="filter0_ddd_1_255" x="540.008" y="253.457" width="13.0015" height="11.9114" filterUnits="userSpaceOnUse" color-interpolation-filters="sRGB">
<feFlood flood-opacity="0" result="BackgroundImageFix"/>
<feColorMatrix in="SourceAlpha" type="matrix" values="0 0 0 0 0 0 0 0 0 0 0 0 0 0 0 0 0 0 127 0" result="hardAlpha"/>
<feOffset/>
<feGaussianBlur stdDeviation="2"/>
<feComposite in2="hardAlpha" operator="out"/>
<feColorMatrix type="matrix" values="0 0 0 0 1 0 0 0 0 0.905882 0 0 0 0 0.360784 0 0 0 1 0"/>
<feBlend mode="normal" in2="BackgroundImageFix" result="effect1_dropShadow_1_255"/>
<feColorMatrix in="SourceAlpha" type="matrix" values="0 0 0 0 0 0 0 0 0 0 0 0 0 0 0 0 0 0 127 0" result="hardAlpha"/>
<feOffset/>
<feGaussianBlur stdDeviation="2"/>
<feComposite in2="hardAlpha" operator="out"/>
<feColorMatrix type="matrix" values="0 0 0 0 1 0 0 0 0 0.905882 0 0 0 0 0.360784 0 0 0 1 0"/>
<feBlend mode="normal" in2="effect1_dropShadow_1_255" result="effect2_dropShadow_1_255"/>
<feColorMatrix in="SourceAlpha" type="matrix" values="0 0 0 0 0 0 0 0 0 0 0 0 0 0 0 0 0 0 127 0" result="hardAlpha"/>
<feOffset/>
<feGaussianBlur stdDeviation="2.2"/>
<feComposite in2="hardAlpha" operator="out"/>
<feColorMatrix type="matrix" values="0 0 0 0 1 0 0 0 0 0.905882 0 0 0 0 0.360784 0 0 0 1 0"/>
<feBlend mode="normal" in2="effect2_dropShadow_1_255" result="effect3_dropShadow_1_255"/>
<feBlend mode="normal" in="SourceGraphic" in2="effect3_dropShadow_1_255" result="shape"/>
</filter>
<filter id="filter1_ddd_1_255" x="548.217" y="242.561" width="12.58" height="12.8231" filterUnits="userSpaceOnUse" color-interpolation-filters="sRGB">
<feFlood flood-opacity="0" result="BackgroundImageFix"/>
<feColorMatrix in="SourceAlpha" type="matrix" values="0 0 0 0 0 0 0 0 0 0 0 0 0 0 0 0 0 0 127 0" result="hardAlpha"/>
<feOffset/>
<feGaussianBlur stdDeviation="2"/>
<feComposite in2="hardAlpha" operator="out"/>
<feColorMatrix type="matrix" values="0 0 0 0 1 0 0 0 0 0.905882 0 0 0 0 0.360784 0 0 0 1 0"/>
<feBlend mode="normal" in2="BackgroundImageFix" result="effect1_dropShadow_1_255"/>
<feColorMatrix in="SourceAlpha" type="matrix" values="0 0 0 0 0 0 0 0 0 0 0 0 0 0 0 0 0 0 127 0" result="hardAlpha"/>
<feOffset/>
<feGaussianBlur stdDeviation="2"/>
<feComposite in2="hardAlpha" operator="out"/>
<feColorMatrix type="matrix" values="0 0 0 0 1 0 0 0 0 0.905882 0 0 0 0 0.360784 0 0 0 1 0"/>
<feBlend mode="normal" in2="effect1_dropShadow_1_255" result="effect2_dropShadow_1_255"/>
<feColorMatrix in="SourceAlpha" type="matrix" values="0 0 0 0 0 0 0 0 0 0 0 0 0 0 0 0 0 0 127 0" result="hardAlpha"/>
<feOffset/>
<feGaussianBlur stdDeviation="2.2"/>
<feComposite in2="hardAlpha" operator="out"/>
<feColorMatrix type="matrix" values="0 0 0 0 1 0 0 0 0 0.905882 0 0 0 0 0.360784 0 0 0 1 0"/>
<feBlend mode="normal" in2="effect2_dropShadow_1_255" result="effect3_dropShadow_1_255"/>
<feBlend mode="normal" in="SourceGraphic" in2="effect3_dropShadow_1_255" result="shape"/>
</filter>
<clipPath id="clip0_1_255">
<rect width="689" height="352" fill="white" transform="translate(-126)"/>
</clipPath>
</defs>
</svg>
