<svg width="693" height="200" viewBox="0 0 693 200" fill="none" xmlns="http://www.w3.org/2000/svg">
<g opacity="0.1">
<path d="M43.6154 161.283C31.8564 161.283 22.6629 158.022 16.0351 151.501C9.40724 144.874 6.09333 135.68 6.09333 123.921H27.901C27.901 129.48 29.2907 133.863 32.0702 137.07C34.9565 140.17 38.9118 141.72 43.9361 141.72H61.735C66.4387 141.72 70.2336 140.758 73.1199 138.834C76.1132 136.803 77.6098 134.13 77.6098 130.816V125.364C77.6098 120.126 73.7614 116.866 66.0645 115.583L36.56 110.612C26.9389 109.008 19.6162 105.962 14.5919 101.472C9.6745 96.8753 7.21578 91.0492 7.21578 83.9937V75.0141C7.21578 69.3484 8.71239 64.3775 11.7056 60.1015C14.8057 55.7186 19.1352 52.3512 24.694 49.9994C30.3597 47.6476 36.8807 46.4717 44.2568 46.4717H62.3764C69.325 46.4717 75.4718 47.9148 80.8168 50.8011C86.1618 53.6874 90.2775 57.7497 93.1638 62.9878C96.157 68.119 97.6536 74.1054 97.6536 80.9471H75.8459C75.8459 76.4573 74.6166 72.8761 72.1578 70.2036C69.6991 67.4242 66.4387 66.0345 62.3764 66.0345H44.2568C39.767 66.0345 36.1324 66.9966 33.353 68.9208C30.6804 70.845 29.3442 73.4106 29.3442 76.6176V80.9471C29.3442 86.2921 33.0323 89.606 40.4084 90.8888L69.7526 96.02C79.4805 97.7305 86.9101 100.777 92.0413 105.16C97.1726 109.436 99.7382 114.995 99.7382 121.837V132.42C99.7382 138.085 98.1347 143.11 94.9276 147.493C91.8275 151.876 87.4446 155.296 81.7789 157.755C76.1132 160.107 69.5388 161.283 62.0557 161.283H43.6154ZM114.531 79.985H134.735V88.6439C136.98 85.6507 139.812 83.2454 143.233 81.4281C146.761 79.6108 150.182 78.7022 153.496 78.7022H163.598C170.012 78.7022 175.678 80.0384 180.595 82.7109C185.512 85.2765 189.307 88.9112 191.98 93.6148C194.652 98.3184 195.989 103.717 195.989 109.81V127.769C195.989 134.397 194.652 140.277 191.98 145.408C189.307 150.432 185.566 154.334 180.755 157.114C175.945 159.893 170.386 161.283 164.079 161.283H153.656C150.663 161.283 147.563 160.588 144.356 159.198C141.256 157.809 138.583 155.938 136.338 153.586V192.07H114.531V79.985ZM161.193 142.522C165.148 142.522 168.301 141.025 170.653 138.032C173.005 135.039 174.181 131.083 174.181 126.166V111.414C174.181 107.245 172.952 103.877 170.493 101.312C168.141 98.746 164.988 97.4632 161.032 97.4632H151.251C148.151 97.4632 145.211 98.746 142.432 101.312C139.652 103.77 137.621 106.977 136.338 110.933V126.807C136.873 131.511 138.476 135.306 141.149 138.192C143.928 141.079 147.296 142.522 151.251 142.522H161.193ZM242.252 161.283C235.518 161.283 229.531 160 224.293 157.434C219.162 154.762 215.153 151.02 212.267 146.21C209.487 141.399 208.098 135.84 208.098 129.533V110.772C208.098 104.465 209.541 98.9064 212.427 94.0958C215.313 89.1784 219.322 85.3834 224.453 82.7109C229.692 80.0384 235.678 78.7022 242.413 78.7022H256.844C263.579 78.7022 269.512 80.0384 274.643 82.7109C279.881 85.3834 283.944 89.1784 286.83 94.0958C289.716 98.9064 291.159 104.465 291.159 110.772V129.533C291.159 135.84 289.716 141.399 286.83 146.21C283.944 151.02 279.881 154.762 274.643 157.434C269.512 160 263.526 161.283 256.684 161.283H242.252ZM256.363 142.522C260.319 142.522 263.472 141.186 265.824 138.513C268.176 135.734 269.352 132.152 269.352 127.769V112.215C269.352 107.833 268.176 104.305 265.824 101.632C263.472 98.8529 260.372 97.4632 256.524 97.4632H242.733C238.885 97.4632 235.785 98.8529 233.433 101.632C231.081 104.305 229.905 107.833 229.905 112.215V127.769C229.905 132.152 231.081 135.734 233.433 138.513C235.785 141.186 238.832 142.522 242.573 142.522H256.363ZM340.53 160C331.123 160 324.228 157.862 319.845 153.586C315.462 149.31 313.27 142.682 313.27 133.702V98.5857H299.159V79.985H313.912V55.772H335.078V79.985H355.924V98.5857H335.078V132.74C335.078 135.734 335.612 137.925 336.681 139.315C337.857 140.704 339.675 141.399 342.133 141.399H355.924V160H340.53Z" fill="#3F3F46"/>
<path d="M428.584 160C423.987 160 420.245 158.61 417.359 155.831C414.473 153.051 413.03 149.417 413.03 144.927V47.7545H466.587C475.139 47.7545 482.622 49.358 489.036 52.565C495.557 55.772 500.581 60.3153 504.109 66.1948C507.743 72.0743 509.561 78.8625 509.561 86.5593V117.988C509.561 131.778 505.98 142.255 498.817 149.417C491.655 156.472 481.125 160 467.228 160H428.584ZM466.587 140.437C473.428 140.437 478.613 138.46 482.141 134.504C485.669 130.549 487.432 124.723 487.432 117.026V87.5215C487.432 81.4281 485.455 76.5642 481.499 72.9295C477.544 69.188 472.359 67.3173 465.945 67.3173H435.158V140.437H466.587ZM556.086 161.283C549.352 161.283 543.365 160.053 538.127 157.595C532.996 155.029 528.987 151.501 526.101 147.012C523.214 142.415 521.771 137.177 521.771 131.297V110.612C521.771 104.305 523.214 98.746 526.101 93.9355C528.987 89.125 532.996 85.3834 538.127 82.7109C543.365 80.0384 549.352 78.7022 556.086 78.7022H568.914C579.177 78.7022 587.408 81.5885 593.608 87.3611C599.809 93.1337 602.909 100.831 602.909 110.452V127.449H543.579V131.297C543.579 134.825 544.701 137.658 546.946 139.796C549.191 141.934 552.238 143.003 556.086 143.003H568.594C572.335 143.003 575.328 142.201 577.573 140.598C579.925 138.887 581.101 136.696 581.101 134.023H602.588C602.588 139.368 601.145 144.125 598.259 148.294C595.372 152.464 591.31 155.671 586.072 157.915C580.941 160.16 575.008 161.283 568.273 161.283H556.086ZM581.422 111.734V110.452C581.422 106.282 580.299 102.969 578.054 100.51C575.809 97.9443 572.816 96.6615 569.075 96.6615H556.086C552.238 96.6615 549.138 97.9977 546.786 100.67C544.434 103.343 543.258 106.87 543.258 111.253V111.734H581.422ZM648.789 160C645.689 160 643.07 159.198 640.932 157.595C638.901 155.884 637.137 153.212 635.64 149.577L608.06 79.985H630.99L649.912 134.985H650.232L669.314 79.985H692.244L660.014 160H648.789Z" fill="#3F3F46"/>
</g>
</svg>
