<svg width="346" height="100" viewBox="0 0 346 100" fill="none" xmlns="http://www.w3.org/2000/svg">
<path d="M21.76 80.64C15.8933 80.64 11.3067 79.0133 8 75.76C4.69333 72.4533 3.04 67.8667 3.04 62H13.92C13.92 64.7733 14.6133 66.96 16 68.56C17.44 70.1067 19.4133 70.88 21.92 70.88H30.8C33.1467 70.88 35.04 70.4 36.48 69.44C37.9733 68.4267 38.72 67.0933 38.72 65.44V62.72C38.72 60.1067 36.8 58.48 32.96 57.84L18.24 55.36C13.44 54.56 9.78667 53.04 7.28 50.8C4.82667 48.5067 3.6 45.6 3.6 42.08V37.6C3.6 34.7733 4.34667 32.2933 5.84 30.16C7.38667 27.9733 9.54667 26.2933 12.32 25.12C15.1467 23.9467 18.4 23.36 22.08 23.36H31.12C34.5867 23.36 37.6533 24.08 40.32 25.52C42.9867 26.96 45.04 28.9867 46.48 31.6C47.9733 34.16 48.72 37.1467 48.72 40.56H37.84C37.84 38.32 37.2267 36.5333 36 35.2C34.7733 33.8133 33.1467 33.12 31.12 33.12H22.08C19.84 33.12 18.0267 33.6 16.64 34.56C15.3067 35.52 14.64 36.8 14.64 38.4V40.56C14.64 43.2267 16.48 44.88 20.16 45.52L34.8 48.08C39.6533 48.9333 43.36 50.4533 45.92 52.64C48.48 54.7733 49.76 57.5467 49.76 60.96V66.24C49.76 69.0667 48.96 71.5733 47.36 73.76C45.8133 75.9467 43.6267 77.6533 40.8 78.88C37.9733 80.0533 34.6933 80.64 30.96 80.64H21.76ZM57.14 40.08H67.22V44.4C68.34 42.9067 69.7533 41.7067 71.46 40.8C73.22 39.8933 74.9267 39.44 76.58 39.44H81.62C84.82 39.44 87.6467 40.1067 90.1 41.44C92.5533 42.72 94.4467 44.5333 95.78 46.88C97.1133 49.2267 97.78 51.92 97.78 54.96V63.92C97.78 67.2267 97.1133 70.16 95.78 72.72C94.4467 75.2267 92.58 77.1733 90.18 78.56C87.78 79.9467 85.0067 80.64 81.86 80.64H76.66C75.1667 80.64 73.62 80.2933 72.02 79.6C70.4733 78.9067 69.14 77.9733 68.02 76.8V96H57.14V40.08ZM80.42 71.28C82.3933 71.28 83.9667 70.5333 85.14 69.04C86.3133 67.5467 86.9 65.5733 86.9 63.12V55.76C86.9 53.68 86.2867 52 85.06 50.72C83.8867 49.44 82.3133 48.8 80.34 48.8H75.46C73.9133 48.8 72.4467 49.44 71.06 50.72C69.6733 51.9467 68.66 53.5467 68.02 55.52V63.44C68.2867 65.7867 69.0867 67.68 70.42 69.12C71.8067 70.56 73.4867 71.28 75.46 71.28H80.42ZM120.861 80.64C117.501 80.64 114.515 80 111.901 78.72C109.341 77.3867 107.341 75.52 105.901 73.12C104.515 70.72 103.821 67.9467 103.821 64.8V55.44C103.821 52.2933 104.541 49.52 105.981 47.12C107.421 44.6667 109.421 42.7733 111.981 41.44C114.595 40.1067 117.581 39.44 120.941 39.44H128.141C131.501 39.44 134.461 40.1067 137.021 41.44C139.635 42.7733 141.661 44.6667 143.101 47.12C144.541 49.52 145.261 52.2933 145.261 55.44V64.8C145.261 67.9467 144.541 70.72 143.101 73.12C141.661 75.52 139.635 77.3867 137.021 78.72C134.461 80 131.475 80.64 128.061 80.64H120.861ZM127.901 71.28C129.875 71.28 131.448 70.6133 132.621 69.28C133.795 67.8933 134.381 66.1067 134.381 63.92V56.16C134.381 53.9733 133.795 52.2133 132.621 50.88C131.448 49.4933 129.901 48.8 127.981 48.8H121.101C119.181 48.8 117.635 49.4933 116.461 50.88C115.288 52.2133 114.701 53.9733 114.701 56.16V63.92C114.701 66.1067 115.288 67.8933 116.461 69.28C117.635 70.6133 119.155 71.28 121.021 71.28H127.901ZM169.893 80C165.199 80 161.759 78.9333 159.572 76.8C157.386 74.6667 156.293 71.36 156.293 66.88V49.36H149.253V40.08H156.613V28H167.173V40.08H177.573V49.36H167.173V66.4C167.173 67.8933 167.439 68.9867 167.973 69.68C168.559 70.3733 169.466 70.72 170.693 70.72H177.573V80H169.893Z" fill="white"/>
<mask id="path-2-outside-1_1_688" maskUnits="userSpaceOnUse" x="203" y="22" width="146" height="61" fill="black">
<rect fill="white" x="203" y="22" width="146" height="61"/>
<path d="M213.72 80C211.427 80 209.56 79.3067 208.12 77.92C206.68 76.5333 205.96 74.72 205.96 72.48V24H232.68C236.947 24 240.68 24.8 243.88 26.4C247.133 28 249.64 30.2667 251.4 33.2C253.213 36.1333 254.12 39.52 254.12 43.36V59.04C254.12 65.92 252.333 71.1467 248.76 74.72C245.187 78.24 239.933 80 233 80H213.72ZM232.68 70.24C236.093 70.24 238.68 69.2533 240.44 67.28C242.2 65.3067 243.08 62.4 243.08 58.56V43.84C243.08 40.8 242.093 38.3733 240.12 36.56C238.147 34.6933 235.56 33.76 232.36 33.76H217V70.24H232.68ZM277.332 80.64C273.972 80.64 270.985 80.0267 268.372 78.8C265.812 77.52 263.812 75.76 262.372 73.52C260.932 71.2267 260.212 68.6133 260.212 65.68V55.36C260.212 52.2133 260.932 49.44 262.372 47.04C263.812 44.64 265.812 42.7733 268.372 41.44C270.985 40.1067 273.972 39.44 277.332 39.44H283.732C288.852 39.44 292.959 40.88 296.052 43.76C299.145 46.64 300.692 50.48 300.692 55.28V63.76H271.092V65.68C271.092 67.44 271.652 68.8533 272.772 69.92C273.892 70.9867 275.412 71.52 277.332 71.52H283.572C285.439 71.52 286.932 71.12 288.052 70.32C289.225 69.4667 289.812 68.3733 289.812 67.04H300.532C300.532 69.7067 299.812 72.08 298.372 74.16C296.932 76.24 294.905 77.84 292.292 78.96C289.732 80.08 286.772 80.64 283.412 80.64H277.332ZM289.972 55.92V55.28C289.972 53.2 289.412 51.5467 288.292 50.32C287.172 49.04 285.679 48.4 283.812 48.4H277.332C275.412 48.4 273.865 49.0667 272.692 50.4C271.519 51.7333 270.932 53.4933 270.932 55.68V55.92H289.972ZM323.582 80C322.035 80 320.729 79.6 319.662 78.8C318.649 77.9467 317.769 76.6133 317.022 74.8L303.262 40.08H314.702L324.142 67.52H324.302L333.822 40.08H345.262L329.182 80H323.582Z"/>
</mask>
<path d="M213.72 80C211.427 80 209.56 79.3067 208.12 77.92C206.68 76.5333 205.96 74.72 205.96 72.48V24H232.68C236.947 24 240.68 24.8 243.88 26.4C247.133 28 249.64 30.2667 251.4 33.2C253.213 36.1333 254.12 39.52 254.12 43.36V59.04C254.12 65.92 252.333 71.1467 248.76 74.72C245.187 78.24 239.933 80 233 80H213.72ZM232.68 70.24C236.093 70.24 238.68 69.2533 240.44 67.28C242.2 65.3067 243.08 62.4 243.08 58.56V43.84C243.08 40.8 242.093 38.3733 240.12 36.56C238.147 34.6933 235.56 33.76 232.36 33.76H217V70.24H232.68ZM277.332 80.64C273.972 80.64 270.985 80.0267 268.372 78.8C265.812 77.52 263.812 75.76 262.372 73.52C260.932 71.2267 260.212 68.6133 260.212 65.68V55.36C260.212 52.2133 260.932 49.44 262.372 47.04C263.812 44.64 265.812 42.7733 268.372 41.44C270.985 40.1067 273.972 39.44 277.332 39.44H283.732C288.852 39.44 292.959 40.88 296.052 43.76C299.145 46.64 300.692 50.48 300.692 55.28V63.76H271.092V65.68C271.092 67.44 271.652 68.8533 272.772 69.92C273.892 70.9867 275.412 71.52 277.332 71.52H283.572C285.439 71.52 286.932 71.12 288.052 70.32C289.225 69.4667 289.812 68.3733 289.812 67.04H300.532C300.532 69.7067 299.812 72.08 298.372 74.16C296.932 76.24 294.905 77.84 292.292 78.96C289.732 80.08 286.772 80.64 283.412 80.64H277.332ZM289.972 55.92V55.28C289.972 53.2 289.412 51.5467 288.292 50.32C287.172 49.04 285.679 48.4 283.812 48.4H277.332C275.412 48.4 273.865 49.0667 272.692 50.4C271.519 51.7333 270.932 53.4933 270.932 55.68V55.92H289.972ZM323.582 80C322.035 80 320.729 79.6 319.662 78.8C318.649 77.9467 317.769 76.6133 317.022 74.8L303.262 40.08H314.702L324.142 67.52H324.302L333.822 40.08H345.262L329.182 80H323.582Z" fill="#F3E8FF"/>
<path d="M208.12 77.92L206.733 79.3606H206.733L208.12 77.92ZM205.96 24V22H203.96V24H205.96ZM243.88 26.4L242.986 28.1889L242.997 28.1947L243.88 26.4ZM251.4 33.2L249.685 34.229L249.692 34.2404L249.699 34.2516L251.4 33.2ZM248.76 74.72L250.164 76.1448L250.169 76.1395L250.174 76.1342L248.76 74.72ZM240.44 67.28L241.933 68.6112L240.44 67.28ZM240.12 36.56L238.746 38.0129L238.756 38.0229L238.767 38.0326L240.12 36.56ZM217 33.76V31.76H215V33.76H217ZM217 70.24H215V72.24H217V70.24ZM213.72 78C211.862 78 210.519 77.4539 209.507 76.4794L206.733 79.3606C208.601 81.1594 210.991 82 213.72 82V78ZM209.507 76.4794C208.508 75.5169 207.96 74.2485 207.96 72.48H203.96C203.96 75.1915 204.852 77.5498 206.733 79.3606L209.507 76.4794ZM207.96 72.48V24H203.96V72.48H207.96ZM205.96 26H232.68V22H205.96V26ZM232.68 26C236.695 26 240.112 26.752 242.986 28.1889L244.774 24.6111C241.248 22.848 237.198 22 232.68 22V26ZM242.997 28.1947C245.927 29.6355 248.135 31.6458 249.685 34.229L253.115 32.171C251.145 28.8876 248.34 26.3645 244.763 24.6053L242.997 28.1947ZM249.699 34.2516C251.295 36.834 252.12 39.8481 252.12 43.36H256.12C256.12 39.1919 255.132 35.4327 253.101 32.1484L249.699 34.2516ZM252.12 43.36V59.04H256.12V43.36H252.12ZM252.12 59.04C252.12 65.5862 250.425 70.2268 247.346 73.3058L250.174 76.1342C254.242 72.0665 256.12 66.2538 256.12 59.04H252.12ZM247.356 73.2952C244.281 76.3245 239.612 78 233 78V82C240.254 82 246.092 80.1555 250.164 76.1448L247.356 73.2952ZM233 78H213.72V82H233V78ZM232.68 72.24C236.487 72.24 239.69 71.126 241.933 68.6112L238.947 65.9488C237.67 67.3806 235.7 68.24 232.68 68.24V72.24ZM241.933 68.6112C244.14 66.1359 245.08 62.6724 245.08 58.56H241.08C241.08 62.1276 240.26 64.4774 238.947 65.9488L241.933 68.6112ZM245.08 58.56V43.84H241.08V58.56H245.08ZM245.08 43.84C245.08 40.3232 243.916 37.3322 241.473 35.0873L238.767 38.0326C240.271 39.4145 241.08 41.2767 241.08 43.84H245.08ZM241.494 35.1071C239.085 32.8276 235.974 31.76 232.36 31.76V35.76C235.146 35.76 237.209 36.5591 238.746 38.0129L241.494 35.1071ZM232.36 31.76H217V35.76H232.36V31.76ZM215 33.76V70.24H219V33.76H215ZM217 72.24H232.68V68.24H217V72.24ZM268.372 78.8L267.477 80.5889L267.5 80.5999L267.522 80.6105L268.372 78.8ZM262.372 73.52L260.678 74.5835L260.684 74.5926L260.69 74.6015L262.372 73.52ZM262.372 47.04L260.657 46.011L262.372 47.04ZM268.372 41.44L267.463 39.6585L267.455 39.6623L267.448 39.6662L268.372 41.44ZM296.052 43.76L294.689 45.2238V45.2238L296.052 43.76ZM300.692 63.76V65.76H302.692V63.76H300.692ZM271.092 63.76V61.76H269.092V63.76H271.092ZM272.772 69.92L271.393 71.3683L272.772 69.92ZM288.052 70.32L289.214 71.9475L289.221 71.9425L289.228 71.9375L288.052 70.32ZM289.812 67.04V65.04H287.812V67.04H289.812ZM300.532 67.04H302.532V65.04H300.532V67.04ZM298.372 74.16L296.727 73.0216L298.372 74.16ZM292.292 78.96L291.504 77.1217L291.497 77.1247L291.49 77.1277L292.292 78.96ZM289.972 55.92V57.92H291.972V55.92H289.972ZM288.292 50.32L286.787 51.637L286.801 51.6529L286.815 51.6685L288.292 50.32ZM272.692 50.4L274.193 51.7213H274.193L272.692 50.4ZM270.932 55.92H268.932V57.92H270.932V55.92ZM277.332 78.64C274.218 78.64 271.529 78.0725 269.222 76.9895L267.522 80.6105C270.441 81.9808 273.726 82.64 277.332 82.64V78.64ZM269.266 77.0111C267.003 75.8794 265.285 74.3536 264.054 72.4385L260.69 74.6015C262.338 77.1664 264.621 79.1606 267.477 80.5889L269.266 77.0111ZM264.066 72.4565C262.842 70.5083 262.212 68.2696 262.212 65.68H258.212C258.212 68.957 259.021 71.9451 260.678 74.5835L264.066 72.4565ZM262.212 65.68V55.36H258.212V65.68H262.212ZM262.212 55.36C262.212 52.5297 262.856 50.1208 264.087 48.069L260.657 46.011C259.008 48.7592 258.212 51.897 258.212 55.36H262.212ZM264.087 48.069C265.331 45.9958 267.052 44.3823 269.296 43.2138L267.448 39.6662C264.571 41.1644 262.293 43.2842 260.657 46.011L264.087 48.069ZM269.281 43.2215C271.574 42.0514 274.242 41.44 277.332 41.44V37.44C273.702 37.44 270.396 38.1619 267.463 39.6585L269.281 43.2215ZM277.332 41.44H283.732V37.44H277.332V41.44ZM283.732 41.44C288.459 41.44 292.041 42.7583 294.689 45.2238L297.415 42.2962C293.876 39.0017 289.245 37.44 283.732 37.44V41.44ZM294.689 45.2238C297.319 47.6724 298.692 50.9523 298.692 55.28H302.692C302.692 50.0077 300.971 45.6076 297.415 42.2962L294.689 45.2238ZM298.692 55.28V63.76H302.692V55.28H298.692ZM300.692 61.76H271.092V65.76H300.692V61.76ZM269.092 63.76V65.68H273.092V63.76H269.092ZM269.092 65.68C269.092 67.9046 269.82 69.8706 271.393 71.3683L274.151 68.4717C273.484 67.8361 273.092 66.9754 273.092 65.68H269.092ZM271.393 71.3683C272.969 72.8698 275.029 73.52 277.332 73.52V69.52C275.795 69.52 274.815 69.1036 274.151 68.4717L271.393 71.3683ZM277.332 73.52H283.572V69.52H277.332V73.52ZM283.572 73.52C285.71 73.52 287.653 73.0626 289.214 71.9475L286.889 68.6925C286.211 69.1774 285.167 69.52 283.572 69.52V73.52ZM289.228 71.9375C290.866 70.7464 291.812 69.0761 291.812 67.04H287.812C287.812 67.6705 287.584 68.1869 286.876 68.7025L289.228 71.9375ZM289.812 69.04H300.532V65.04H289.812V69.04ZM298.532 67.04C298.532 69.3231 297.923 71.2947 296.727 73.0216L300.016 75.2984C301.701 72.8653 302.532 70.0902 302.532 67.04H298.532ZM296.727 73.0216C295.527 74.7552 293.816 76.131 291.504 77.1217L293.08 80.7983C295.995 79.549 298.336 77.7248 300.016 75.2984L296.727 73.0216ZM291.49 77.1277C289.229 78.1171 286.551 78.64 283.412 78.64V82.64C286.993 82.64 290.235 82.0429 293.094 80.7923L291.49 77.1277ZM283.412 78.64H277.332V82.64H283.412V78.64ZM291.972 55.92V55.28H287.972V55.92H291.972ZM291.972 55.28C291.972 52.832 291.304 50.6532 289.769 48.9715L286.815 51.6685C287.519 52.4402 287.972 53.568 287.972 55.28H291.972ZM289.797 49.003C288.258 47.2436 286.192 46.4 283.812 46.4V50.4C285.165 50.4 286.086 50.8364 286.787 51.637L289.797 49.003ZM283.812 46.4H277.332V50.4H283.812V46.4ZM277.332 46.4C274.89 46.4 272.777 47.276 271.19 49.0787L274.193 51.7213C274.954 50.8573 275.934 50.4 277.332 50.4V46.4ZM271.19 49.0787C269.626 50.8565 268.932 53.1241 268.932 55.68H272.932C272.932 53.8626 273.411 52.6102 274.193 51.7213L271.19 49.0787ZM268.932 55.68V55.92H272.932V55.68H268.932ZM270.932 57.92H289.972V53.92H270.932V57.92ZM319.662 78.8L318.374 80.3298L318.417 80.3662L318.462 80.4L319.662 78.8ZM317.022 74.8L315.163 75.5369L315.167 75.5492L315.173 75.5615L317.022 74.8ZM303.262 40.08V38.08H300.318L301.403 40.8169L303.262 40.08ZM314.702 40.08L316.593 39.4294L316.129 38.08H314.702V40.08ZM324.142 67.52L322.251 68.1706L322.715 69.52H324.142V67.52ZM324.302 67.52V69.52H325.725L326.191 68.1755L324.302 67.52ZM333.822 40.08V38.08H332.399L331.932 39.4245L333.822 40.08ZM345.262 40.08L347.117 40.8273L348.224 38.08H345.262V40.08ZM329.182 80V82H330.532L331.037 80.7473L329.182 80ZM323.582 78C322.396 78 321.529 77.7003 320.862 77.2L318.462 80.4C319.928 81.4997 321.674 82 323.582 82V78ZM320.95 77.2702C320.273 76.6997 319.55 75.6862 318.871 74.0385L315.173 75.5615C315.987 77.5405 317.024 79.1936 318.374 80.3298L320.95 77.2702ZM318.881 74.0631L305.121 39.3431L301.403 40.8169L315.163 75.5369L318.881 74.0631ZM303.262 42.08H314.702V38.08H303.262V42.08ZM312.811 40.7306L322.251 68.1706L326.033 66.8694L316.593 39.4294L312.811 40.7306ZM324.142 69.52H324.302V65.52H324.142V69.52ZM326.191 68.1755L335.711 40.7355L331.932 39.4245L322.412 66.8645L326.191 68.1755ZM333.822 42.08H345.262V38.08H333.822V42.08ZM343.407 39.3327L327.327 79.2527L331.037 80.7473L347.117 40.8273L343.407 39.3327ZM329.182 78H323.582V82H329.182V78Z" fill="#C084FC" mask="url(#path-2-outside-1_1_688)"/>
</svg>
