<svg width="346" height="100" viewBox="0 0 346 100" fill="none" xmlns="http://www.w3.org/2000/svg">
<path d="M21.76 80.64C15.8933 80.64 11.3067 79.0133 8 75.76C4.69333 72.4533 3.04 67.8667 3.04 62H13.92C13.92 64.7733 14.6133 66.96 16 68.56C17.44 70.1067 19.4133 70.88 21.92 70.88H30.8C33.1467 70.88 35.04 70.4 36.48 69.44C37.9733 68.4267 38.72 67.0933 38.72 65.44V62.72C38.72 60.1067 36.8 58.48 32.96 57.84L18.24 55.36C13.44 54.56 9.78667 53.04 7.28 50.8C4.82667 48.5067 3.6 45.6 3.6 42.08V37.6C3.6 34.7733 4.34667 32.2933 5.84 30.16C7.38667 27.9733 9.54667 26.2933 12.32 25.12C15.1467 23.9467 18.4 23.36 22.08 23.36H31.12C34.5867 23.36 37.6533 24.08 40.32 25.52C42.9867 26.96 45.04 28.9867 46.48 31.6C47.9733 34.16 48.72 37.1467 48.72 40.56H37.84C37.84 38.32 37.2267 36.5333 36 35.2C34.7733 33.8133 33.1467 33.12 31.12 33.12H22.08C19.84 33.12 18.0267 33.6 16.64 34.56C15.3067 35.52 14.64 36.8 14.64 38.4V40.56C14.64 43.2267 16.48 44.88 20.16 45.52L34.8 48.08C39.6533 48.9333 43.36 50.4533 45.92 52.64C48.48 54.7733 49.76 57.5467 49.76 60.96V66.24C49.76 69.0667 48.96 71.5733 47.36 73.76C45.8133 75.9467 43.6267 77.6533 40.8 78.88C37.9733 80.0533 34.6933 80.64 30.96 80.64H21.76ZM57.14 40.08H67.22V44.4C68.34 42.9067 69.7533 41.7067 71.46 40.8C73.22 39.8933 74.9267 39.44 76.58 39.44H81.62C84.82 39.44 87.6467 40.1067 90.1 41.44C92.5533 42.72 94.4467 44.5333 95.78 46.88C97.1133 49.2267 97.78 51.92 97.78 54.96V63.92C97.78 67.2267 97.1133 70.16 95.78 72.72C94.4467 75.2267 92.58 77.1733 90.18 78.56C87.78 79.9467 85.0067 80.64 81.86 80.64H76.66C75.1667 80.64 73.62 80.2933 72.02 79.6C70.4733 78.9067 69.14 77.9733 68.02 76.8V96H57.14V40.08ZM80.42 71.28C82.3933 71.28 83.9667 70.5333 85.14 69.04C86.3133 67.5467 86.9 65.5733 86.9 63.12V55.76C86.9 53.68 86.2867 52 85.06 50.72C83.8867 49.44 82.3133 48.8 80.34 48.8H75.46C73.9133 48.8 72.4467 49.44 71.06 50.72C69.6733 51.9467 68.66 53.5467 68.02 55.52V63.44C68.2867 65.7867 69.0867 67.68 70.42 69.12C71.8067 70.56 73.4867 71.28 75.46 71.28H80.42ZM120.861 80.64C117.501 80.64 114.515 80 111.901 78.72C109.341 77.3867 107.341 75.52 105.901 73.12C104.515 70.72 103.821 67.9467 103.821 64.8V55.44C103.821 52.2933 104.541 49.52 105.981 47.12C107.421 44.6667 109.421 42.7733 111.981 41.44C114.595 40.1067 117.581 39.44 120.941 39.44H128.141C131.501 39.44 134.461 40.1067 137.021 41.44C139.635 42.7733 141.661 44.6667 143.101 47.12C144.541 49.52 145.261 52.2933 145.261 55.44V64.8C145.261 67.9467 144.541 70.72 143.101 73.12C141.661 75.52 139.635 77.3867 137.021 78.72C134.461 80 131.475 80.64 128.061 80.64H120.861ZM127.901 71.28C129.875 71.28 131.448 70.6133 132.621 69.28C133.795 67.8933 134.381 66.1067 134.381 63.92V56.16C134.381 53.9733 133.795 52.2133 132.621 50.88C131.448 49.4933 129.901 48.8 127.981 48.8H121.101C119.181 48.8 117.635 49.4933 116.461 50.88C115.288 52.2133 114.701 53.9733 114.701 56.16V63.92C114.701 66.1067 115.288 67.8933 116.461 69.28C117.635 70.6133 119.155 71.28 121.021 71.28H127.901ZM169.893 80C165.199 80 161.759 78.9333 159.572 76.8C157.386 74.6667 156.293 71.36 156.293 66.88V49.36H149.253V40.08H156.613V28H167.173V40.08H177.573V49.36H167.173V66.4C167.173 67.8933 167.439 68.9867 167.973 69.68C168.559 70.3733 169.466 70.72 170.693 70.72H177.573V80H169.893Z" fill="#52525B"/>
<path d="M213.72 80C211.427 80 209.56 79.3067 208.12 77.92C206.68 76.5333 205.96 74.72 205.96 72.48V24H232.68C236.947 24 240.68 24.8 243.88 26.4C247.133 28 249.64 30.2667 251.4 33.2C253.213 36.1333 254.12 39.52 254.12 43.36V59.04C254.12 65.92 252.333 71.1467 248.76 74.72C245.187 78.24 239.933 80 233 80H213.72ZM232.68 70.24C236.093 70.24 238.68 69.2533 240.44 67.28C242.2 65.3067 243.08 62.4 243.08 58.56V43.84C243.08 40.8 242.093 38.3733 240.12 36.56C238.147 34.6933 235.56 33.76 232.36 33.76H217V70.24H232.68ZM277.332 80.64C273.972 80.64 270.985 80.0267 268.372 78.8C265.812 77.52 263.812 75.76 262.372 73.52C260.932 71.2267 260.212 68.6133 260.212 65.68V55.36C260.212 52.2133 260.932 49.44 262.372 47.04C263.812 44.64 265.812 42.7733 268.372 41.44C270.985 40.1067 273.972 39.44 277.332 39.44H283.732C288.852 39.44 292.959 40.88 296.052 43.76C299.145 46.64 300.692 50.48 300.692 55.28V63.76H271.092V65.68C271.092 67.44 271.652 68.8533 272.772 69.92C273.892 70.9867 275.412 71.52 277.332 71.52H283.572C285.439 71.52 286.932 71.12 288.052 70.32C289.225 69.4667 289.812 68.3733 289.812 67.04H300.532C300.532 69.7067 299.812 72.08 298.372 74.16C296.932 76.24 294.905 77.84 292.292 78.96C289.732 80.08 286.772 80.64 283.412 80.64H277.332ZM289.972 55.92V55.28C289.972 53.2 289.412 51.5467 288.292 50.32C287.172 49.04 285.679 48.4 283.812 48.4H277.332C275.412 48.4 273.865 49.0667 272.692 50.4C271.519 51.7333 270.932 53.4933 270.932 55.68V55.92H289.972ZM323.582 80C322.035 80 320.729 79.6 319.662 78.8C318.649 77.9467 317.769 76.6133 317.022 74.8L303.262 40.08H314.702L324.142 67.52H324.302L333.822 40.08H345.262L329.182 80H323.582Z" fill="#52525B"/>
</svg>
