<svg width="112" height="71" viewBox="0 0 112 71" fill="none" xmlns="http://www.w3.org/2000/svg">
<path d="M108.003 30.375C104.448 25.8863 100.35 21.8556 95.8031 18.375C99.2031 11.175 99.9032 9.17499 98.7032 6.87499C96.4032 2.47499 89.9032 -0.825014 81.9032 0.174986C81.0469 0.226979 80.2193 0.502839 79.5032 0.974985C78.7923 1.36879 78.1776 1.91522 77.7032 2.57498L71.6031 11.675L60.6031 29.875C41.9031 10.975 34.0031 8.17499 21.9031 11.175C9.80314 14.175 8.60315 26.175 10.5031 33.475C12.4031 40.775 17.4032 45.975 19.1032 47.975C14.6279 47.4521 10.0925 47.8954 5.80314 49.275C5.25626 49.4787 4.77318 49.8237 4.40314 50.275C4.01276 50.6769 3.70676 51.153 3.50315 51.675C1.97523 56.184 0.935935 60.844 0.403144 65.575C0.00314352 68.475 18.4031 70.775 29.3031 70.775H99.7032C101.103 65.675 99.7032 59.475 99.7032 59.475C99.7032 59.475 106.903 45.875 109.703 41.175C112.503 36.475 111.103 34.775 108.003 30.375Z" fill="#FF78B9"/>
<path d="M60.6031 29.875C66.7031 36.475 76.6031 41.075 76.6031 41.075C82.0031 24.375 82.9032 14.875 86.9032 14.075C90.9032 13.275 92.9032 15.975 95.8032 18.375C99.2032 11.175 99.9032 9.175 98.7032 6.87501C96.4032 2.37501 89.9032 -0.824996 81.9032 0.175004C81.0634 0.240143 80.2463 0.478482 79.5032 0.875005C78.8108 1.33505 78.202 1.90998 77.7032 2.575L71.6031 11.575L60.6031 29.875Z" fill="#FFA8D2"/>
<path d="M71.1031 57.575L35.2032 46.875L16.4031 44.475C17.2397 45.6892 18.141 46.8576 19.1032 47.975C14.6278 47.4583 10.0937 47.9015 5.80314 49.275C5.25626 49.4787 4.77318 49.8237 4.40314 50.275C4.01276 50.6769 3.70676 51.1529 3.50315 51.675C1.97523 56.184 0.935935 60.844 0.403144 65.575C0.00314352 68.475 18.4031 70.775 29.3031 70.775H99.7032C100.765 66.7946 100.936 62.6289 100.203 58.575C93.6032 58.375 81.7031 58.075 71.1031 57.575Z" fill="#FFA8D2"/>
<path d="M34.8031 21.675C25.1031 9.97496 14.2031 12.175 10.9031 20.375C9.50565 24.6152 9.40123 29.1752 10.6031 33.475C12.1031 39.575 17.4031 45.975 19.1031 47.975C39.8031 50.075 51.5031 56.875 71.2031 57.575C50.6031 45.375 43.5031 32.075 34.8031 21.675Z" fill="black"/>
<path d="M27.5031 70.775C7.90315 70.775 -9.49686 66.175 5.90314 63.675C21.3031 61.175 37.2031 70.775 55.8031 70.775H27.5031Z" fill="black"/>
<path d="M2.40323 55.475C2.30323 55.575 2.30322 55.575 2.30322 55.675C9.60322 52.575 22.3032 53.475 39.3032 58.475C56.3032 63.475 68.6032 64.075 100.703 64.075V62.275C68.8032 62.275 57.0032 61.875 39.8032 56.775C24.8032 52.275 12.9032 50.975 4.90323 52.975C4.29734 53.1224 3.74366 53.4335 3.30273 53.8745C2.86181 54.3154 2.55062 54.8691 2.40323 55.475Z" fill="#FF78B9"/>
<path d="M89.7032 46.175C91.7032 46.175 93.3032 42.975 93.3032 38.975C93.3032 34.975 91.7032 31.775 89.7032 31.775C87.7032 31.775 86.0032 34.975 86.0032 38.975C86.0032 42.975 87.6032 46.175 89.7032 46.175Z" fill="white"/>
<path d="M56.0032 51.375C51.2032 55.575 46.6032 52.075 47.9032 44.975C50.4899 47.2479 53.1936 49.3841 56.0032 51.375Z" fill="#66BCFF"/>
<path d="M42.8032 39.975C39.6032 45.475 35.0032 42.775 34.9032 38.775C29.5032 38.775 29.3032 33.875 33.3032 28.875C36.2233 32.7791 39.3968 36.4871 42.8032 39.975Z" fill="#66BCFF"/>
<path d="M22.9032 18.175C17.7032 25.875 16.1032 25.375 15.0032 23.775C10.3032 29.875 10.3032 24.475 13.0032 19.675C15.7032 14.875 18.9032 15.475 22.9032 18.175Z" fill="#66BCFF"/>
<path d="M12.8031 34.175C10.5031 41.275 13.3031 43.175 16.7031 41.275C15.3031 38.975 14.0031 36.575 12.8031 34.175Z" fill="#66BCFF"/>
<path d="M88.6032 36.475C87.7032 36.275 86.8032 36.875 86.0032 38.075V38.975C85.9894 41.0506 86.5426 43.0906 87.6032 44.875C88.772 44.0288 89.5903 42.7836 89.9032 41.375C90.4032 38.975 89.9032 36.775 88.6032 36.475Z" fill="black"/>
<path d="M70.0032 64.275L69.3032 63.975C69.2024 63.8684 69.1239 63.7427 69.0724 63.6053C69.0208 63.4679 68.9973 63.3216 69.0032 63.175C69.0969 59.1762 70.6227 55.3439 73.3032 52.375C73.374 52.2523 73.4762 52.1506 73.5992 52.0804C73.7221 52.0101 73.8616 51.9737 74.0032 51.975C74.1498 51.9691 74.2961 51.9926 74.4335 52.0441C74.5709 52.0956 74.6966 52.1741 74.8032 52.275C74.9941 52.4703 75.1318 52.7113 75.2032 52.975C75.2091 53.1216 75.1856 53.2679 75.1341 53.4053C75.0825 53.5427 75.0041 53.6684 74.9032 53.775C72.6118 56.3896 71.2725 59.7025 71.1032 63.175C71.1091 63.3216 71.0855 63.4679 71.034 63.6053C70.9825 63.7427 70.904 63.8684 70.8032 63.975C70.613 64.1551 70.3648 64.2615 70.1032 64.275H70.0032Z" fill="black"/>
</svg>
